<?xml version="1.0" encoding="utf-8"?>
<!-- Generator: Adobe Illustrator 12.0.0, SVG Export Plug-In . SVG Version: 6.00 Build 51448)  -->
<!DOCTYPE svg PUBLIC "-//W3C//DTD SVG 1.1//EN" "http://www.w3.org/Graphics/SVG/1.1/DTD/svg11.dtd" [
	<!ENTITY ns_svg "http://www.w3.org/2000/svg">
	<!ENTITY ns_xlink "http://www.w3.org/1999/xlink">
]>
<svg  version="1.1" id="Layer_1" xmlns="&ns_svg;" xmlns:xlink="&ns_xlink;" width="90.635" height="90.635"
	 viewBox="-30.5 -30.5 90.635 90.635" overflow="visible" enable-background="new -30.5 -30.5 90.635 90.635" xml:space="preserve">
<g transform="translate(-270 -260)">
	<g>
		<polygon fill="#FFFFFF" points="323.701,237.48 264.237,229.5 262.807,240.133 310.168,240.133 310.168,313.017 313.5,313.466 		
			"/>
		<path fill="#FFFFFF" d="M246.834,243.466v76.668h60v-76.668H246.834z M280.168,294.8v8.666h5v3.334H268.5v-3.334h5v-8.756
			c-9.31,6.123-19.773-1.811-15.992-11.244c2.43-6.066,18.633-22.623,19.266-23.27c0.634,0.646,16.837,17.203,19.268,23.27
			C299.807,292.856,289.447,300.772,280.168,294.8z"/>
		<path fill="#FFFFFF" d="M276.717,260.134c0,0,0.047,0.049,0.061,0.063c0.01-0.014,0.057-0.063,0.057-0.063H276.717z"/>
	</g>
</g>
</svg>
