<svg xmlns="http://www.w3.org/2000/svg" xmlns:xlink="http://www.w3.org/1999/xlink" version="1.1" x="0px" y="0px" viewBox="0 0 100 100" style="enable-background:new 0 0 100 100;" xml:space="preserve"><style type="text/css">
	.st0{display:none;}
</style><g><path d="M50,0C22.4,0,0,22.4,0,50s22.4,50,50,50s50-22.4,50-50S77.6,0,50,0z M90,75.6l-8.6-5.1c-2.9,4.4-6.6,8.1-11,11l5.1,8.6   c-4.6,3-9.8,5.2-15.3,6.4l-2.5-9.8c-2.5,0.5-5.1,0.8-7.7,0.8s-5.2-0.3-7.7-0.8l-2.5,9.8C34.2,95.2,29.1,93,24.4,90l5.1-8.6   c-4.4-2.9-8.1-6.6-11-11l-8.6,5.1c-3-4.6-5.2-9.8-6.4-15.3l9.7-2.5c-0.5-2.5-0.8-5.1-0.8-7.8c0-2.7,0.3-5.3,0.8-7.8l-9.7-2.5   C4.8,34.2,7,29.1,10,24.4l8.6,5.1c2.9-4.4,6.6-8.1,11-11L24.4,10c4.6-3,9.8-5.1,15.3-6.3l2.4,9.7c2.5-0.5,5.1-0.8,7.8-0.8   c2.7,0,5.3,0.3,7.8,0.8l2.4-9.7C65.8,4.9,70.9,7,75.6,10l-5.1,8.6c4.4,2.9,8.1,6.6,11,11l8.6-5.1c3,4.6,5.1,9.8,6.3,15.3l-9.7,2.5   c0.5,2.5,0.8,5.1,0.8,7.8c0,2.7-0.3,5.3-0.8,7.8l9.7,2.5C95.1,65.8,93,70.9,90,75.6z"></path><path d="M81.2,51.4c-0.4,0-0.8,0.3-0.8,0.7c0,0.4,0.3,0.8,0.7,0.8s0.8-0.3,0.9-0.7C82,51.8,81.7,51.5,81.2,51.4z"></path><path d="M80.7,55.9c-0.4-0.1-0.8,0.2-0.9,0.6c-0.1,0.4,0.2,0.8,0.6,0.9c0.4,0.1,0.9-0.2,1-0.6C81.4,56.4,81.1,55.9,80.7,55.9z"></path><path d="M79.5,60.2c-0.4-0.1-0.9,0.1-1,0.5c-0.2,0.4,0,0.9,0.5,1c0.4,0.2,0.9,0,1-0.5C80.2,60.8,80,60.3,79.5,60.2z"></path><path d="M77.8,64.3c-0.4-0.2-0.9-0.1-1.1,0.3c-0.2,0.4-0.1,0.8,0.3,1.1c0.4,0.2,0.9,0.1,1.1-0.3C78.3,65,78.2,64.5,77.8,64.3z"></path><path d="M75.5,68.1c-0.4-0.3-0.9-0.2-1.1,0.2c-0.3,0.3-0.2,0.8,0.1,1.1c0.3,0.3,0.9,0.2,1.1-0.1C75.9,68.8,75.8,68.3,75.5,68.1z"></path><path d="M71.5,71.5c-0.3,0.3-0.3,0.8,0,1.1c0.3,0.3,0.8,0.3,1.1,0c0.3-0.3,0.3-0.8,0-1.1C72.3,71.2,71.8,71.2,71.5,71.5z"></path><path d="M68.2,74.4c-0.3,0.2-0.4,0.7-0.2,1.1c0.3,0.4,0.8,0.4,1.1,0.2c0.4-0.3,0.4-0.8,0.1-1.1C69.1,74.2,68.6,74.1,68.2,74.4z"></path><path d="M64.6,76.7c-0.4,0.2-0.5,0.7-0.3,1.1c0.2,0.4,0.7,0.6,1.1,0.3c0.4-0.2,0.5-0.7,0.3-1.1C65.4,76.7,65,76.5,64.6,76.7z"></path><path d="M60.6,78.5c-0.4,0.2-0.6,0.6-0.5,1c0.1,0.4,0.6,0.6,1,0.5c0.4-0.2,0.6-0.6,0.5-1C61.5,78.6,61,78.4,60.6,78.5z"></path><path d="M56.5,79.8c-0.4,0.1-0.7,0.5-0.6,0.9c0.1,0.4,0.5,0.7,0.9,0.6c0.4-0.1,0.7-0.5,0.6-1C57.3,79.9,56.9,79.7,56.5,79.8z"></path><path d="M52.2,80.4c-0.4,0-0.8,0.4-0.7,0.8c0,0.4,0.4,0.8,0.8,0.7c0.5,0,0.8-0.4,0.7-0.9C53,80.7,52.6,80.3,52.2,80.4z"></path><path d="M47.8,80.4c-0.4,0-0.8,0.3-0.8,0.7c0,0.4,0.3,0.8,0.7,0.9c0.4,0,0.8-0.3,0.8-0.7C48.6,80.8,48.3,80.4,47.8,80.4z"></path><path d="M43.5,79.8c-0.4-0.1-0.8,0.2-0.9,0.6c-0.1,0.4,0.2,0.9,0.6,1c0.4,0.1,0.9-0.2,0.9-0.6C44.2,80.3,43.9,79.9,43.5,79.8z"></path><path d="M39.4,78.5c-0.4-0.2-0.9,0-1,0.5c-0.2,0.4,0,0.9,0.5,1c0.4,0.2,0.9-0.1,1-0.5C40,79.1,39.8,78.7,39.4,78.5z"></path><path d="M35.4,76.7c-0.4-0.2-0.8-0.1-1.1,0.3c-0.2,0.4-0.1,0.9,0.3,1.1c0.4,0.2,0.9,0.1,1.1-0.3C35.9,77.4,35.8,76.9,35.4,76.7z"></path><path d="M31.8,74.4c-0.3-0.3-0.8-0.2-1.1,0.1c-0.3,0.3-0.2,0.9,0.1,1.1c0.4,0.3,0.9,0.2,1.1-0.2C32.2,75.1,32.1,74.6,31.8,74.4z"></path><path d="M27.4,71.5c-0.3,0.3-0.3,0.8,0,1.1c0.3,0.3,0.8,0.3,1.1,0s0.3-0.8,0-1.1C28.2,71.2,27.7,71.2,27.4,71.5z"></path><path d="M24.5,68.1c-0.4,0.3-0.4,0.8-0.2,1.1c0.3,0.4,0.8,0.4,1.1,0.1s0.4-0.8,0.1-1.1C25.4,67.9,24.9,67.8,24.5,68.1z"></path><path d="M22.2,64.3c-0.4,0.2-0.6,0.7-0.3,1.1c0.2,0.4,0.7,0.5,1.1,0.3c0.4-0.2,0.5-0.7,0.3-1.1C23.1,64.2,22.6,64.1,22.2,64.3z"></path><path d="M20.5,60.2c-0.4,0.1-0.6,0.6-0.5,1c0.2,0.4,0.6,0.6,1,0.5s0.6-0.6,0.5-1C21.3,60.2,20.9,60,20.5,60.2z"></path><path d="M20.2,56.5c-0.1-0.4-0.5-0.7-0.9-0.6c-0.4,0.1-0.7,0.5-0.6,0.9c0.1,0.4,0.5,0.7,1,0.6C20.1,57.3,20.3,56.9,20.2,56.5z"></path><path d="M19.6,52.2c0-0.4-0.4-0.8-0.8-0.7c-0.4,0-0.8,0.4-0.7,0.8c0,0.5,0.4,0.8,0.9,0.7C19.3,53,19.7,52.6,19.6,52.2z"></path><path d="M18.8,48.6c0.4,0,0.8-0.3,0.8-0.7c0-0.4-0.3-0.8-0.7-0.8c-0.4,0-0.8,0.3-0.9,0.7C18,48.2,18.3,48.5,18.8,48.6z"></path><path d="M19.3,44.1c0.4,0.1,0.8-0.2,0.9-0.6c0.1-0.4-0.2-0.8-0.6-0.9s-0.9,0.2-1,0.6C18.6,43.6,18.9,44.1,19.3,44.1z"></path><path d="M21,38.3c-0.4-0.2-0.9,0-1,0.5c-0.2,0.4,0.1,0.9,0.5,1c0.4,0.1,0.9-0.1,1-0.5C21.6,39,21.4,38.5,21,38.3z"></path><path d="M23,34.3c-0.4-0.2-0.9-0.1-1.1,0.3c-0.2,0.4-0.1,0.9,0.3,1.1c0.4,0.2,0.9,0.1,1.1-0.3C23.5,35,23.3,34.6,23,34.3z"></path><path d="M24.5,31.9c0.4,0.3,0.9,0.2,1.1-0.2c0.3-0.3,0.2-0.8-0.1-1.1c-0.3-0.3-0.9-0.2-1.1,0.1C24.1,31.2,24.2,31.7,24.5,31.9z"></path><path d="M28.5,28.5c0.3-0.3,0.3-0.8,0-1.1c-0.3-0.3-0.8-0.3-1.1,0c-0.3,0.3-0.3,0.8,0,1.1S28.2,28.8,28.5,28.5z"></path><path d="M31.8,25.6c0.3-0.2,0.4-0.7,0.2-1.1c-0.3-0.4-0.8-0.4-1.1-0.2c-0.4,0.3-0.4,0.8-0.1,1.1C30.9,25.8,31.4,25.9,31.8,25.6z"></path><path d="M35.4,23.3c0.4-0.2,0.5-0.7,0.3-1.1c-0.2-0.4-0.7-0.6-1.1-0.3c-0.4,0.2-0.5,0.7-0.3,1.1C34.6,23.3,35,23.5,35.4,23.3z"></path><path d="M39.4,21.5c0.4-0.2,0.6-0.6,0.5-1c-0.1-0.4-0.6-0.6-1-0.5c-0.4,0.2-0.6,0.6-0.5,1C38.5,21.4,39,21.6,39.4,21.5z"></path><path d="M43.5,20.2c0.4-0.1,0.7-0.5,0.6-0.9c-0.1-0.4-0.5-0.7-0.9-0.6c-0.4,0.1-0.7,0.5-0.6,1C42.7,20.1,43.1,20.3,43.5,20.2z"></path><path d="M47.8,19.6c0.4,0,0.8-0.4,0.7-0.8c0-0.4-0.4-0.8-0.8-0.7c-0.5,0-0.8,0.4-0.7,0.9C47,19.3,47.4,19.7,47.8,19.6z"></path><path d="M52.2,19.6c0.4,0,0.8-0.3,0.8-0.7c0-0.4-0.3-0.8-0.7-0.9c-0.4,0-0.8,0.3-0.8,0.7C51.4,19.2,51.7,19.6,52.2,19.6z"></path><path d="M56.5,20.2c0.4,0.1,0.8-0.2,0.9-0.6c0.1-0.4-0.2-0.9-0.6-1c-0.4-0.1-0.9,0.2-0.9,0.6C55.8,19.7,56.1,20.1,56.5,20.2z"></path><path d="M60.6,21.5c0.4,0.2,0.9,0,1-0.5c0.2-0.4,0-0.9-0.5-1c-0.4-0.2-0.9,0.1-1,0.5C60,20.9,60.2,21.3,60.6,21.5z"></path><path d="M64.6,23.3c0.4,0.2,0.8,0.1,1.1-0.3s0.1-0.9-0.3-1.1c-0.4-0.2-0.9-0.1-1.1,0.3C64.1,22.6,64.2,23.1,64.6,23.3z"></path><path d="M68.2,25.6c0.3,0.3,0.8,0.2,1.1-0.1s0.2-0.9-0.1-1.1c-0.4-0.3-0.9-0.2-1.1,0.2C67.8,24.9,67.9,25.4,68.2,25.6z"></path><path d="M72.6,28.5c0.3-0.3,0.3-0.8,0-1.1c-0.3-0.3-0.8-0.3-1.1,0c-0.3,0.3-0.3,0.8,0,1.1C71.8,28.8,72.3,28.8,72.6,28.5z"></path><path d="M74.5,30.6c-0.3,0.3-0.4,0.8-0.1,1.1c0.2,0.3,0.7,0.4,1.1,0.2c0.4-0.3,0.4-0.8,0.2-1.1C75.4,30.4,74.9,30.4,74.5,30.6z"></path><path d="M77,34.3c-0.4,0.2-0.5,0.7-0.3,1.1c0.2,0.4,0.7,0.5,1.1,0.3c0.4-0.2,0.6-0.7,0.3-1.1C77.9,34.2,77.4,34.1,77,34.3z"></path><path d="M79.5,39.8c0.4-0.1,0.6-0.6,0.5-1c-0.2-0.4-0.6-0.6-1-0.5c-0.4,0.2-0.6,0.6-0.5,1C78.7,39.8,79.1,40,79.5,39.8z"></path><path d="M79.8,43.5c0.1,0.4,0.5,0.7,0.9,0.6c0.4-0.1,0.7-0.5,0.6-0.9c-0.1-0.4-0.5-0.7-1-0.6S79.7,43.1,79.8,43.5z"></path><path d="M81.1,47c-0.4,0-0.8,0.4-0.7,0.8c0,0.4,0.4,0.8,0.8,0.7c0.4,0,0.8-0.4,0.7-0.8C81.9,47.3,81.5,46.9,81.1,47z"></path><path d="M50.6,25C36.3,24.7,24.7,36.3,25,50.6C25.3,63.9,36.1,74.7,49.4,75C63.7,75.3,75.3,63.7,75,49.4   C74.7,36.1,63.9,25.3,50.6,25z"></path></g></svg>