<svg xmlns="http://www.w3.org/2000/svg" xmlns:xlink="http://www.w3.org/1999/xlink" version="1.1" x="0px" y="0px" viewBox="0 0 91 91" enable-background="new 0 0 91 91" xml:space="preserve"><g><path fill="#000000" d="M36.896,34.95h19.504l0.125-15.417H17.237V34.95h8.645l-0.054,5.327L36.896,34.95z M20.638,31.55v-8.616   h32.459l-0.07,8.616H36.12l-6.837,3.292l0.032-3.292H20.638z"></path><path fill="#000000" d="M17.237,54.477v15.42h8.645l-0.054,5.322l11.067-5.322h19.528l-0.103-15.42H17.237z M36.12,66.496   l-6.837,3.289l0.032-3.289h-8.678v-8.619h32.307l0.058,8.619H36.12z"></path><path fill="#000000" d="M36.225,52.421h19.519L66.81,57.75l-0.054-5.329H75.4V37.005H36.225V52.421z M39.625,40.405H72v8.615   h-8.678l0.032,3.292l-6.836-3.292H39.625V40.405z"></path></g></svg>