<svg xmlns="http://www.w3.org/2000/svg" xmlns:xlink="http://www.w3.org/1999/xlink" version="1.0" x="0px" y="0px" viewBox="0 0 32 32" enable-background="new 0 0 32 32" xml:space="preserve"><path d="M30,0H1.999C0.894,0,0,0.895,0,2v20c0,1.105,0.894,2,1.999,2h10l4,8l4-8H30c1.105,0,2-0.895,2-2V2C32,0.895,31.105,0,30,0z   M7.999,14c-1.105,0-2-0.895-2-2s0.895-2,2-2s2,0.895,2,2S9.104,14,7.999,14z M15.999,14c-1.105,0-2-0.895-2-2s0.895-2,2-2  s2,0.895,2,2S17.104,14,15.999,14z M23.999,14c-1.105,0-2-0.895-2-2s0.895-2,2-2s2,0.895,2,2S25.104,14,23.999,14z"></path></svg>