<?xml version="1.0" encoding="iso-8859-1"?>
<!-- Generator: Adobe Illustrator 17.0.0, SVG Export Plug-In . SVG Version: 6.00 Build 0)  -->
<!DOCTYPE svg PUBLIC "-//W3C//DTD SVG 1.1//EN" "http://www.w3.org/Graphics/SVG/1.1/DTD/svg11.dtd" [
	<!ENTITY ns_extend "http://ns.adobe.com/Extensibility/1.0/">
	<!ENTITY ns_ai "http://ns.adobe.com/AdobeIllustrator/10.0/">
	<!ENTITY ns_graphs "http://ns.adobe.com/Graphs/1.0/">
	<!ENTITY ns_vars "http://ns.adobe.com/Variables/1.0/">
	<!ENTITY ns_imrep "http://ns.adobe.com/ImageReplacement/1.0/">
	<!ENTITY ns_sfw "http://ns.adobe.com/SaveForWeb/1.0/">
	<!ENTITY ns_custom "http://ns.adobe.com/GenericCustomNamespace/1.0/">
	<!ENTITY ns_adobe_xpath "http://ns.adobe.com/XPath/1.0/">
]>
<svg version="1.1" id="Ebene_1" xmlns:x="&ns_extend;" xmlns:i="&ns_ai;" xmlns:graph="&ns_graphs;"
	 xmlns="http://www.w3.org/2000/svg" xmlns:xlink="http://www.w3.org/1999/xlink" x="0px" y="0px" width="420px" height="260px"
	 viewBox="0 0 420 260" style="enable-background:new 0 0 420 260;" xml:space="preserve">
<metadata>
	<sfw  xmlns="&ns_sfw;">
		<slices></slices>
		<sliceSourceBounds  width="416" height="251" bottomLeftOrigin="true" y="-256" x="2"></sliceSourceBounds>
	</sfw>
</metadata>
<g>
	<path style="fill:#AE8554;" d="M391,173c0,2.761-2.239,5-5,5H82c-2.761,0-5-2.239-5-5V10c0-2.761,2.239-5,5-5h304
		c2.761,0,5,2.239,5,5V173z"/>
	<path style="fill:#AE8554;" d="M263,203c0,2.75-2.25,5-5,5h-49c-2.75,0-5-2.25-5-5v-36c0-2.75,2.25-5,5-5h49c2.75,0,5,2.25,5,5V203
		z"/>
	<path style="fill:#232227;" d="M382,147c0,2.761-2.239,5-5,5H91c-2.761,0-5-2.239-5-5V17c0-2.761,2.239-5,5-5h286
		c2.761,0,5,2.239,5,5V147z"/>
	<circle style="fill:#232227;" cx="233.625" cy="167.667" r="8.667"/>
	<g style="opacity:0.02;">
		<path style="fill:#FFFFFF;" d="M382,12v135c0,2.75-2.665,5-5.415,5H86"/>
	</g>
</g>
<g>
	<path style="fill:#AE8554;" d="M130,251c0,2.761-2.239,5-5,5H7c-2.761,0-5-2.239-5-5V88c0-2.761,2.239-5,5-5h118
		c2.761,0,5,2.239,5,5V251z"/>
	<path style="fill:#232227;" d="M121,225c0,2.761-2.239,5-5,5H16c-2.761,0-5-2.239-5-5V95c0-2.761,2.239-5,5-5h100
		c2.761,0,5,2.239,5,5V225z"/>
	<circle style="fill:#232227;" cx="66.458" cy="242.667" r="6"/>
</g>
<g>
	<path style="fill:#AE8554;" d="M418,215.514c0,1.925-1.561,3.486-3.486,3.486h-53.028c-1.925,0-3.486-1.561-3.486-3.486v-91.028
		c0-1.925,1.561-3.486,3.486-3.486h53.028c1.925,0,3.486,1.561,3.486,3.486V215.514z"/>
	<path style="fill:#232227;" d="M411,201.514c0,1.925-1.561,3.486-3.486,3.486h-40.028c-1.925,0-3.486-1.561-3.486-3.486v-73.028
		c0-1.925,1.561-3.486,3.486-3.486h40.028c1.925,0,3.486,1.561,3.486,3.486V201.514z"/>
	<circle style="fill:#232227;" cx="388.087" cy="212.295" r="3.253"/>
</g>
</svg>
