<?xml version="1.0" encoding="iso-8859-1"?>
<!-- Generator: Adobe Illustrator 17.0.0, SVG Export Plug-In . SVG Version: 6.00 Build 0)  -->
<!DOCTYPE svg PUBLIC "-//W3C//DTD SVG 1.1//EN" "http://www.w3.org/Graphics/SVG/1.1/DTD/svg11.dtd" [
	<!ENTITY ns_extend "http://ns.adobe.com/Extensibility/1.0/">
	<!ENTITY ns_ai "http://ns.adobe.com/AdobeIllustrator/10.0/">
	<!ENTITY ns_graphs "http://ns.adobe.com/Graphs/1.0/">
	<!ENTITY ns_vars "http://ns.adobe.com/Variables/1.0/">
	<!ENTITY ns_imrep "http://ns.adobe.com/ImageReplacement/1.0/">
	<!ENTITY ns_sfw "http://ns.adobe.com/SaveForWeb/1.0/">
	<!ENTITY ns_custom "http://ns.adobe.com/GenericCustomNamespace/1.0/">
	<!ENTITY ns_adobe_xpath "http://ns.adobe.com/XPath/1.0/">
]>
<svg version="1.1" id="Ebene_1" xmlns:x="&ns_extend;" xmlns:i="&ns_ai;" xmlns:graph="&ns_graphs;"
	 xmlns="http://www.w3.org/2000/svg" xmlns:xlink="http://www.w3.org/1999/xlink" x="0px" y="0px" width="370px" height="290px"
	 viewBox="0 0 370 290" style="enable-background:new 0 0 370 290;" xml:space="preserve">
<metadata>
	<sfw  xmlns="&ns_sfw;">
		<slices></slices>
		<sliceSourceBounds  width="362" height="286.309" bottomLeftOrigin="true" y="-288.309" x="4"></sliceSourceBounds>
	</sfw>
</metadata>
<g>
	<g>
		<g>
			<path style="fill:#AE8554;" d="M95.064,288.309L66.053,243H4V99h266v144H139.541L95.064,288.309z M12,235h58.603l25.836,40.352
				L136.051,235H261V107H12V235z"/>
		</g>
	</g>
	<g>
		<path style="fill:#AE8554;" d="M336,180.453l-51.671-32.211L220,148.02V2h146v147h-30V180.453z M228,139.732l58.223,0.202
			L327,165.464V141h31V11H228V139.732z"/>
	</g>
	<g>
		<rect x="104" y="171" style="fill:#AE8554;" width="74" height="8"/>
	</g>
	<g>
		<rect x="55" y="140" style="fill:#AE8554;" width="123" height="9"/>
	</g>
	<g>
		<rect x="263" y="34" style="fill:#AE8554;" width="48" height="8"/>
	</g>
	<g>
		<rect x="263" y="63" style="fill:#AE8554;" width="80" height="8"/>
	</g>
</g>
</svg>
