<svg xmlns="http://www.w3.org/2000/svg" viewBox="0 0 86.25 85.36" x="0px" y="0px"><path d="m372.27 432.54c-2.194 0-3.961 1.766-3.961 3.961v38.35.743 38.35c0 2.194 1.767 3.961 3.961 3.961h63.5c2.195 0 3.961-1.767 3.961-3.961v-24.609l-15.719 15.719c-.139.123-.31.209-.495.248-7.981 1.717-14.958 3.34-19.927 4.456-.337.081-.695 0-.959-.217-.329-.263-.463-.689-.34-1.083.429-1.967.987-4.474 1.547-6.993h-19.618v-3.96h20.515c.657-2.898 1.335-5.887 2.104-9.1.034-.183.12-.355.248-.495l2.785-2.785h-25.652v-3.961h29.612l25.899-25.899v-18.761c0-2.195-1.766-3.961-3.961-3.961zm11.944 16.44h39.607v3.96h-39.607zm59.22 8.478c-.222.023-.429.122-.588.278l-4.58 4.611c-.381.386-.381 1.01 0 1.392l9.995 9.995c.02.021.04.041.063.061.393.325.969.298 1.331-.061l4.611-4.579c.381-.386.381-1.01 0-1.393l-9.995-10.03c-.22-.218-.529-.321-.836-.278m-59.23 7.859h39.607v3.961h-39.607zm50.623.836c-.259.001-.503.121-.681.309l-19.401 19.402c-.381.385-.381 1.01 0 1.392l9.995 9.995c.386.381 1.01.381 1.392 0l19.401-19.402c.381-.385.381-1.01 0-1.392l-9.995-9.995c-.185-.195-.442-.307-.712-.309m-23.579 23.548c-.427.032-.786.318-.897.712l-1.609 6.622-1.609 6.622c-.134.428.058.889.464 1.114.23.139.509.183.774.123l6.622-1.608 6.591-1.671c.771-.193 1.015-1.12.433-1.64l-5.01-4.982-4.982-4.982c-.199-.205-.481-.317-.774-.31" transform="translate(-368.31-432.54)"></path></svg>