<?xml version="1.0" encoding="iso-8859-1"?>
<!-- Generator: Adobe Illustrator 17.0.0, SVG Export Plug-In . SVG Version: 6.00 Build 0)  -->
<!DOCTYPE svg PUBLIC "-//W3C//DTD SVG 1.1//EN" "http://www.w3.org/Graphics/SVG/1.1/DTD/svg11.dtd" [
	<!ENTITY ns_extend "http://ns.adobe.com/Extensibility/1.0/">
	<!ENTITY ns_ai "http://ns.adobe.com/AdobeIllustrator/10.0/">
	<!ENTITY ns_graphs "http://ns.adobe.com/Graphs/1.0/">
	<!ENTITY ns_vars "http://ns.adobe.com/Variables/1.0/">
	<!ENTITY ns_imrep "http://ns.adobe.com/ImageReplacement/1.0/">
	<!ENTITY ns_sfw "http://ns.adobe.com/SaveForWeb/1.0/">
	<!ENTITY ns_custom "http://ns.adobe.com/GenericCustomNamespace/1.0/">
	<!ENTITY ns_adobe_xpath "http://ns.adobe.com/XPath/1.0/">
]>
<svg version="1.1" id="Ebene_1" xmlns:x="&ns_extend;" xmlns:i="&ns_ai;" xmlns:graph="&ns_graphs;"
	 xmlns="http://www.w3.org/2000/svg" xmlns:xlink="http://www.w3.org/1999/xlink" x="0px" y="0px" width="400px" height="370px"
	 viewBox="0 0 400 370" style="enable-background:new 0 0 400 370;" xml:space="preserve">
<metadata>
	<sfw  xmlns="&ns_sfw;">
		<slices></slices>
		<sliceSourceBounds  width="389.327" height="358.413" bottomLeftOrigin="true" y="-364" x="4.837"></sliceSourceBounds>
	</sfw>
</metadata>
<g>
	<g>
		<ellipse style="fill:#AF8654;" cx="309.523" cy="328.011" rx="12.939" ry="16.424"/>
		<path style="fill:#AF8654;" d="M323.525,323.43c0.019,2.179-1.099,6.069-2.549,6.082c-1.45,0.013-2.683-3-2.702-5.178
			c-0.019-2.179,1.039-3.252,2.49-3.265S323.506,321.251,323.525,323.43z"/>
		<path style="fill:#AF8654;" d="M295.691,322.766c-0.019,2.179,1.099,6.069,2.549,6.082s2.683-3,2.702-5.178
			c0.019-2.179-1.039-3.252-2.49-3.265S295.711,320.587,295.691,322.766z"/>
		<path style="fill:#AF8654;" d="M318.529,344.11c-2.173,2.558-5.41,4.08-9.029,4.08s-6.857-1.471-9.029-4.029
			c-12.528,3.855-21.634,4.392-21.634,18.838h61.327C340.163,348.554,331.057,347.965,318.529,344.11z"/>
	</g>
	<g>
		<ellipse style="fill:#AF8654;" cx="91.523" cy="329.011" rx="12.939" ry="16.424"/>
		<path style="fill:#AF8654;" d="M105.525,324.43c0.019,2.179-1.099,6.069-2.549,6.082c-1.45,0.013-2.683-3-2.702-5.178
			s1.039-3.252,2.49-3.265S105.506,322.251,105.525,324.43z"/>
		<path style="fill:#AF8654;" d="M77.691,323.766c-0.019,2.179,1.099,6.069,2.549,6.082s2.683-3,2.702-5.178
			c0.019-2.179-1.039-3.252-2.49-3.265C79.003,321.391,77.711,321.587,77.691,323.766z"/>
		<path style="fill:#AF8654;" d="M100.529,345.11c-2.173,2.558-5.41,4.08-9.029,4.08s-6.857-1.471-9.029-4.029
			c-12.528,3.855-21.634,4.392-21.634,18.838h61.327C122.163,349.554,113.057,348.965,100.529,345.11z"/>
	</g>
	<g>
		<ellipse style="fill:#AF8654;" cx="35.523" cy="154.011" rx="12.939" ry="16.424"/>
		<path style="fill:#AF8654;" d="M49.525,149.43c0.019,2.179-1.099,6.069-2.549,6.082c-1.45,0.013-2.683-3-2.702-5.178
			c-0.019-2.179,1.039-3.252,2.49-3.265C48.214,147.056,49.506,147.251,49.525,149.43z"/>
		<path style="fill:#AF8654;" d="M21.691,148.766c-0.019,2.179,1.099,6.069,2.549,6.082c1.45,0.013,2.683-3,2.702-5.178
			c0.019-2.179-1.039-3.252-2.49-3.265C23.003,146.391,21.711,146.587,21.691,148.766z"/>
		<path style="fill:#AF8654;" d="M44.529,170.11c-2.173,2.558-5.41,4.08-9.029,4.08s-6.857-1.471-9.029-4.029
			C13.943,174.017,4.837,174.554,4.837,189h61.327C66.163,174.554,57.057,173.965,44.529,170.11z"/>
	</g>
	<g>
		<ellipse style="fill:#AF8654;" cx="197.523" cy="22.011" rx="12.939" ry="16.424"/>
		<path style="fill:#AF8654;" d="M211.525,17.43c0.019,2.179-1.099,6.069-2.549,6.082c-1.45,0.013-2.683-3-2.702-5.178
			c-0.019-2.179,1.039-3.252,2.49-3.265C210.214,15.056,211.506,15.251,211.525,17.43z"/>
		<path style="fill:#AF8654;" d="M183.691,16.766c-0.019,2.179,1.099,6.069,2.549,6.082c1.45,0.013,2.683-3,2.702-5.178
			s-1.04-3.252-2.49-3.265C185.003,14.391,183.711,14.587,183.691,16.766z"/>
		<path style="fill:#AF8654;" d="M206.529,38.11c-2.173,2.558-5.41,4.08-9.029,4.08s-6.857-1.471-9.029-4.029
			c-12.528,3.855-21.634,4.392-21.634,18.838h61.327C228.163,42.554,219.057,41.965,206.529,38.11z"/>
	</g>
	<g>
		<ellipse style="fill:#AF8654;" cx="363.523" cy="150.011" rx="12.939" ry="16.424"/>
		<path style="fill:#AF8654;" d="M377.525,145.43c0.019,2.179-1.099,6.069-2.549,6.082c-1.45,0.013-2.683-3-2.702-5.178
			c-0.019-2.179,1.039-3.252,2.49-3.265C376.214,143.056,377.506,143.251,377.525,145.43z"/>
		<path style="fill:#AF8654;" d="M349.691,144.766c-0.019,2.179,1.099,6.069,2.549,6.082c1.45,0.013,2.683-3,2.702-5.178
			c0.019-2.179-1.039-3.252-2.49-3.265C351.003,142.391,349.711,142.587,349.691,144.766z"/>
		<path style="fill:#AF8654;" d="M372.529,166.11c-2.173,2.558-5.41,4.08-9.029,4.08s-6.857-1.471-9.029-4.029
			c-12.528,3.855-21.634,4.392-21.634,18.838h61.327C394.163,170.554,385.057,169.965,372.529,166.11z"/>
	</g>
	
		<line style="fill:none;stroke:#AF8654;stroke-miterlimit:10;stroke-dasharray:1,3,1,3,1,3;" x1="197.991" y1="136.416" x2="198" y2="69"/>
	
		<line style="fill:none;stroke:#AF8654;stroke-miterlimit:10;stroke-dasharray:1,3,1,3,1,3;" x1="130.707" y1="185.335" x2="69" y2="164.5"/>
	
		<line style="fill:none;stroke:#AF8654;stroke-miterlimit:10;stroke-dasharray:1,3,1,3,1,3;" x1="156.407" y1="264.5" x2="119.184" y2="314.5"/>
	
		<line style="fill:none;stroke:#AF8654;stroke-miterlimit:10;stroke-dasharray:1,3,1,3,1,3;" x1="239.575" y1="264.5" x2="279.296" y2="314.5"/>
	
		<line style="fill:none;stroke:#AF8654;stroke-miterlimit:10;stroke-dasharray:1,3,1,3,1,3;" x1="265.275" y1="185.352" x2="328.774" y2="162.126"/>
	<g>
		<g>
			<path style="fill:#AF8654;" d="M211,206h-5v-24.741c0-1.349-1.032-2.259-2.439-2.259h-10.373c-1.374,0-2.188,0.863-2.188,2.259
				V206h-5v-24.741c0-3.839,3.371-7.259,7.188-7.259h10.373c3.833,0,7.439,3.485,7.439,7.259V206z"/>
		</g>
		<path style="fill:#AF8654;" d="M219.819,194H177.08c-4.014,0-7.08,2.854-7.08,6.868v23.753c0,4.014,3.066,7.38,7.08,7.38h45.102
			c4.014,0,4.818-3.365,4.818-7.38v-23.753C227,196.854,223.833,194,219.819,194z M202.002,213.092
			c0.026,0.146-0.002,0.296-0.002,0.45v9.48c0,1.402-1.048,1.978-2.45,1.978h-2.202c-1.402,0-1.348-0.577-1.348-1.978v-9.48
			c0-0.113-0.585-0.223-0.571-0.332c-1.241-1.022-2.329-2.57-2.329-4.303c0-3.077,2.346-5.572,5.424-5.572s5.476,2.495,5.476,5.572
			C203.999,210.577,203.165,212.071,202.002,213.092z"/>
	</g>
	<polygon style="fill:none;stroke:#AF8654;stroke-miterlimit:10;stroke-dasharray:1,3,1,3,1,3;" points="119.184,314.5 
		69.707,162.093 199.24,67.916 328.774,162.126 279.296,314.5 	"/>
	<polygon style="fill:none;stroke:#AF8654;stroke-miterlimit:10;stroke-dasharray:1,3,1,3,1,3;" points="156.407,264.5 
		130.707,185.335 197.991,136.416 265.275,185.352 239.575,264.5 	"/>
</g>
</svg>
