<?xml version="1.0" encoding="iso-8859-1"?>
<!-- Generator: Adobe Illustrator 17.0.0, SVG Export Plug-In . SVG Version: 6.00 Build 0)  -->
<!DOCTYPE svg PUBLIC "-//W3C//DTD SVG 1.1//EN" "http://www.w3.org/Graphics/SVG/1.1/DTD/svg11.dtd" [
	<!ENTITY ns_extend "http://ns.adobe.com/Extensibility/1.0/">
	<!ENTITY ns_ai "http://ns.adobe.com/AdobeIllustrator/10.0/">
	<!ENTITY ns_graphs "http://ns.adobe.com/Graphs/1.0/">
	<!ENTITY ns_vars "http://ns.adobe.com/Variables/1.0/">
	<!ENTITY ns_imrep "http://ns.adobe.com/ImageReplacement/1.0/">
	<!ENTITY ns_sfw "http://ns.adobe.com/SaveForWeb/1.0/">
	<!ENTITY ns_custom "http://ns.adobe.com/GenericCustomNamespace/1.0/">
	<!ENTITY ns_adobe_xpath "http://ns.adobe.com/XPath/1.0/">
]>
<svg version="1.1" id="Ebene_1" xmlns:x="&ns_extend;" xmlns:i="&ns_ai;" xmlns:graph="&ns_graphs;"
	 xmlns="http://www.w3.org/2000/svg" xmlns:xlink="http://www.w3.org/1999/xlink" x="0px" y="0px" width="430px" height="190px"
	 viewBox="0 0 430 190" style="enable-background:new 0 0 430 190;" xml:space="preserve">
<metadata>
	<sfw  xmlns="&ns_sfw;">
		<slices></slices>
		<sliceSourceBounds  width="427.689" height="181.718" bottomLeftOrigin="true" y="-186.058" x="0.897"></sliceSourceBounds>
	</sfw>
</metadata>
<g>
	<path style="fill:#AE8554;" d="M137.038,185.558h-0.289v-1h0.289c0.197,0,0.395-0.023,0.586-0.07l0.235,0.973
		C137.59,185.524,137.314,185.558,137.038,185.558z M133.749,185.558h-1v-1h1V185.558z M129.749,185.558h-1v-1h1V185.558z
		 M125.749,185.558h-1v-1h1V185.558z M121.749,185.558h-1v-1h1V185.558z M117.749,185.558h-1v-1h1V185.558z M113.749,185.558h-1v-1
		h1V185.558z M109.749,185.558h-1v-1h1V185.558z M105.749,185.558h-1v-1h1V185.558z M101.749,185.558h-1v-1h1V185.558z
		 M97.749,185.558h-1v-1h1V185.558z M93.749,185.558h-1v-1h1V185.558z M89.749,185.558h-1v-1h1V185.558z M85.749,185.558h-1v-1h1
		V185.558z M81.749,185.558h-1v-1h1V185.558z M77.749,185.558h-1v-1h1V185.558z M73.749,185.558h-1v-1h1V185.558z M69.749,185.558
		h-1v-1h1V185.558z M65.749,185.558h-1v-1h1V185.558z M61.749,185.558h-1v-1h1V185.558z M57.749,185.558h-1v-1h1V185.558z
		 M53.749,185.558h-1v-1h1V185.558z M49.749,185.558h-1v-1h1V185.558z M45.749,185.558h-1v-1h1V185.558z M41.749,185.558h-1v-1h1
		V185.558z M37.749,185.558h-1v-1h1V185.558z M33.749,185.558h-1v-1h1V185.558z M29.749,185.558h-1v-1h1V185.558z M25.749,185.558
		h-1v-1h1V185.558z M21.749,185.558h-1v-1h1V185.558z M17.749,185.558h-1v-1h1V185.558z M13.749,185.558h-1v-1h1V185.558z
		 M9.749,185.558h-1v-1h1V185.558z M5.749,185.558h-1v-1h1V185.558z M1.695,184.276c-0.249-0.303-0.444-0.641-0.58-1.004l0.938-0.35
		c0.097,0.26,0.236,0.502,0.415,0.719L1.695,184.276z M140.344,183.204l-0.944-0.33c0.092-0.262,0.138-0.537,0.138-0.816h1
		C140.538,182.449,140.472,182.835,140.344,183.204z M1.897,180.12h-1v-1h1V180.12z M140.538,179.496h-1v-1h1V179.496z
		 M1.897,176.12h-1v-1h1V176.12z M140.538,175.496h-1v-1h1V175.496z M1.897,172.12h-1v-1h1V172.12z M140.538,171.496h-1v-1h1
		V171.496z M1.897,168.12h-1v-1h1V168.12z M140.538,167.496h-1v-1h1V167.496z M1.897,164.12h-1v-1h1V164.12z M140.538,163.496h-1v-1
		h1V163.496z M1.897,160.12h-1v-1h1V160.12z M140.538,159.496h-1v-1h1V159.496z M1.897,156.12h-1v-1h1V156.12z M140.538,155.496h-1
		v-1h1V155.496z M1.897,152.12h-1v-1h1V152.12z M140.538,151.496h-1v-1h1V151.496z M1.897,148.12h-1v-1h1V148.12z M140.538,147.496
		h-1v-1h1V147.496z M1.897,144.12h-1v-1h1V144.12z M140.538,143.496h-1v-1h1V143.496z M1.897,140.12h-1v-1h1V140.12z
		 M140.538,139.496h-1v-1h1V139.496z M1.897,136.12h-1v-1h1V136.12z M140.538,135.496h-1v-1h1V135.496z M1.897,132.12h-1v-1h1
		V132.12z M140.538,131.496h-1v-1h1V131.496z M1.897,128.12h-1v-1h1V128.12z M140.538,127.496h-1v-1h1V127.496z M1.897,124.12h-1v-1
		h1V124.12z M140.538,123.496h-1v-1h1V123.496z M1.897,120.12h-1v-1h1V120.12z M140.538,119.496h-1v-1h1V119.496z M1.897,116.12h-1
		v-1h1V116.12z M140.538,115.496h-1v-1h1V115.496z M1.897,112.12h-1v-1h1V112.12z M140.538,111.496h-1v-1h1V111.496z M1.897,108.12
		h-1v-1h1V108.12z M140.538,107.496h-1v-1h1V107.496z M1.897,104.12h-1v-1h1V104.12z M140.538,103.496h-1v-1h1V103.496z
		 M1.897,100.12h-1v-1h1V100.12z M140.538,99.496h-1v-1h1V99.496z M1.897,96.12h-1v-1h1V96.12z M140.538,95.496h-1v-1h1V95.496z
		 M1.897,92.12h-1v-1h1V92.12z M140.538,91.496h-1v-1h1V91.496z M1.897,88.12h-1v-1h1V88.12z M140.538,87.496h-1v-1h1V87.496z
		 M1.897,84.12h-1v-1h1V84.12z M140.538,83.496h-1v-1h1V83.496z M1.897,80.12h-1v-1h1V80.12z M140.538,79.496h-1v-1h1V79.496z
		 M1.897,76.12h-1v-1h1V76.12z M140.538,75.496h-1v-1h1V75.496z M1.897,72.12h-1v-1h1V72.12z M140.538,71.496h-1v-1h1V71.496z
		 M1.897,68.12h-1v-1h1V68.12z M140.538,67.496h-1v-1h1V67.496z M1.897,64.121h-1v-1h1V64.121z M140.538,63.496h-1v-1h1V63.496z
		 M1.897,60.121h-1v-1h1V60.121z M140.538,59.496h-1v-1h1V59.496z M1.897,56.121h-1v-1h1V56.121z M140.538,55.496h-1v-1h1V55.496z
		 M1.897,52.121h-1v-1h1V52.121z M140.538,51.496h-1v-1h1V51.496z M1.897,48.121h-1v-1h1V48.121z M140.538,47.496h-1v-1h1V47.496z
		 M1.897,44.121h-1v-1h1V44.121z M140.538,43.496h-1v-1h1V43.496z M1.897,40.121h-1v-1h1V40.121z M140.538,39.496h-1v-1h1V39.496z
		 M1.897,36.121h-1v-1h1V36.121z M140.538,35.496h-1v-1h1V35.496z M1.897,32.121h-1v-1h1V32.121z M140.538,31.496h-1v-1h1V31.496z
		 M1.897,28.121h-1v-1h1V28.121z M140.538,27.496h-1v-1h1V27.496z M1.897,24.121h-1v-1h1V24.121z M140.538,23.496h-1v-1h1V23.496z
		 M1.897,20.121h-1v-1h1V20.121z M140.538,19.496h-1v-1h1V19.496z M1.897,16.121h-1v-1h1V16.121z M140.538,15.496h-1v-1h1V15.496z
		 M1.897,12.121h-1v-1h1V12.121z M140.538,11.496h-1v-1h1V11.496z M1.904,8.157L0.907,8.084c0.028-0.39,0.122-0.77,0.278-1.129
		l0.917,0.398C1.991,7.609,1.924,7.879,1.904,8.157z M139.44,7.647c-0.078-0.267-0.199-0.518-0.361-0.747l0.816-0.578
		c0.227,0.32,0.396,0.672,0.505,1.045L139.44,7.647z M3.989,5.873L3.826,4.887c0.186-0.031,0.376-0.047,0.57-0.047h0.509v1H4.397
		C4.26,5.84,4.123,5.851,3.989,5.873z M136.905,5.839h-1v-1h1V5.839z M132.905,5.839h-1v-1h1V5.839z M128.905,5.839h-1v-1h1V5.839z
		 M124.905,5.839h-1v-1h1V5.839z M120.905,5.839h-1v-1h1V5.839z M116.905,5.839h-1v-1h1V5.839z M112.905,5.839h-1v-1h1V5.839z
		 M108.905,5.839h-1v-1h1V5.839z M104.905,5.839h-1v-1h1V5.839z M100.905,5.839h-1v-1h1V5.839z M96.905,5.839h-1v-1h1V5.839z
		 M92.905,5.839h-1v-1h1V5.839z M88.905,5.839h-1v-1h1V5.839z M84.905,5.839h-1v-1h1V5.839z M80.905,5.839h-1v-1h1V5.839z
		 M76.905,5.839h-1v-1h1V5.839z M72.905,5.839h-1v-1h1V5.839z M68.905,5.839h-1v-1h1V5.839z M64.905,5.839h-1v-1h1V5.839z
		 M60.905,5.839h-1v-1h1V5.839z M56.905,5.839h-1v-1h1V5.839z M52.905,5.839h-1v-1h1V5.839z M48.905,5.839h-1v-1h1V5.839z
		 M44.905,5.839h-1v-1h1V5.839z M40.905,5.839h-1v-1h1V5.839z M36.905,5.839h-1v-1h1V5.839z M32.905,5.839h-1v-1h1V5.839z
		 M28.905,5.839h-1v-1h1V5.839z M24.905,5.839h-1v-1h1V5.839z M20.905,5.839h-1v-1h1V5.839z M16.905,5.839h-1v-1h1V5.839z
		 M12.905,5.839h-1v-1h1V5.839z M8.905,5.839h-1v-1h1V5.839z"/>
</g>
<g>
	<path style="fill:#AE8554;" d="M85.936,95.201L69.017,65.245l-8.51,10.169v19.787H47.661v-65.83h12.847v28.663l23.207-28.663H99.34
		L77.522,55.537l23.392,39.664H85.936z"/>
</g>
<path style="fill:#AE8554;" d="M100.85,133.006c0-9.379-7.603-16.982-16.982-16.982c-4.508,0-8.594,1.769-11.635,4.634
	c-3.04-2.866-7.127-4.634-11.635-4.634c-9.379,0-16.982,7.603-16.982,16.982c0,5.16,2.302,9.783,5.935,12.897
	c7.225,7.006,22.71,17.214,22.71,17.214s16.437-10.833,23.343-17.838C98.837,142.188,100.85,137.832,100.85,133.006z"/>
<g>
	<path style="fill:#AE8554;" d="M424.587,186.058h-132.64c-2.206,0-4-1.794-4-4V8.339c0-2.206,1.794-4,4-4h132.64
		c2.206,0,4,1.794,4,4v173.718C428.587,184.264,426.793,186.058,424.587,186.058z M291.947,6.339c-1.103,0-2,0.897-2,2v173.718
		c0,1.103,0.897,2,2,2h132.64c1.103,0,2-0.897,2-2V8.339c0-1.103-0.897-2-2-2H291.947z"/>
</g>
<g>
	<path style="fill:#AE8554;" d="M373.486,95.201l-16.919-29.956l-8.51,10.169v19.787H335.21v-65.83h12.847v28.663l23.207-28.663
		h15.625l-21.818,26.165l23.392,39.664H373.486z"/>
</g>
<path style="fill:#AE8554;" d="M388.399,133.006c0-9.379-7.603-16.982-16.982-16.982c-4.508,0-8.594,1.769-11.635,4.634
	c-3.04-2.866-7.127-4.634-11.635-4.634c-9.379,0-16.982,7.603-16.982,16.982c0,5.16,2.302,9.783,5.935,12.897
	c7.225,7.006,22.71,17.214,22.71,17.214s16.437-10.833,23.343-17.838C386.386,142.188,388.399,137.832,388.399,133.006z"/>
<polygon style="fill:#AE8554;" points="264.865,92.932 224.877,52.944 219.362,58.46 249.902,89 161,89 161,99 248.394,99 
	219.362,128.033 224.877,133.548 264.865,93.56 264.551,93.246 "/>
</svg>
