<?xml version="1.0" encoding="utf-8"?>
<!-- Generator: Adobe Illustrator 12.0.0, SVG Export Plug-In . SVG Version: 6.00 Build 51448)  -->
<!DOCTYPE svg PUBLIC "-//W3C//DTD SVG 1.1//EN" "http://www.w3.org/Graphics/SVG/1.1/DTD/svg11.dtd" [
	<!ENTITY ns_svg "http://www.w3.org/2000/svg">
	<!ENTITY ns_xlink "http://www.w3.org/1999/xlink">
]>
<svg  version="1.1" id="Layer_1" xmlns="&ns_svg;" xmlns:xlink="&ns_xlink;" width="100" height="100" viewBox="0 0 100 100"
	 overflow="visible" enable-background="new 0 0 100 100" xml:space="preserve">
<g>
	<g>
		<path fill="#FFFFFF" stroke="#FFFFFF" d="M30.6,62.4c-5.3,5.3-5.3,13.8,0,19c5.3,5.199,13.8,5.3,19,0l0.1-0.101l-19-19
			C30.7,62.4,30.7,62.4,30.6,62.4z"/>
	</g>
	<path fill="#FFFFFF" stroke="#FFFFFF" d="M77.1,67.4C90.2,54,94.7,36.2,89.1,23.5c2.5-3.5,2.2-8.4-0.899-11.6
		C85.1,8.7,80.2,8.4,76.6,11C63.9,5.3,46,9.8,32.6,22.9c-8.8,0.9-17.3,4.8-24.1,11.5l8.9,8.9l1.7,1.7L55,80.8l4.3,4.3l6.3,6.301
		C72.3,84.7,76.1,76.1,77.1,67.4z"/>
</g>
</svg>
