<?xml version="1.0" encoding="iso-8859-1"?>
<!-- Generator: Adobe Illustrator 17.0.0, SVG Export Plug-In . SVG Version: 6.00 Build 0)  -->
<!DOCTYPE svg PUBLIC "-//W3C//DTD SVG 1.1//EN" "http://www.w3.org/Graphics/SVG/1.1/DTD/svg11.dtd" [
	<!ENTITY ns_extend "http://ns.adobe.com/Extensibility/1.0/">
	<!ENTITY ns_ai "http://ns.adobe.com/AdobeIllustrator/10.0/">
	<!ENTITY ns_graphs "http://ns.adobe.com/Graphs/1.0/">
	<!ENTITY ns_vars "http://ns.adobe.com/Variables/1.0/">
	<!ENTITY ns_imrep "http://ns.adobe.com/ImageReplacement/1.0/">
	<!ENTITY ns_sfw "http://ns.adobe.com/SaveForWeb/1.0/">
	<!ENTITY ns_custom "http://ns.adobe.com/GenericCustomNamespace/1.0/">
	<!ENTITY ns_adobe_xpath "http://ns.adobe.com/XPath/1.0/">
]>
<svg version="1.1" id="Ebene_1" xmlns:x="&ns_extend;" xmlns:i="&ns_ai;" xmlns:graph="&ns_graphs;"
	 xmlns="http://www.w3.org/2000/svg" xmlns:xlink="http://www.w3.org/1999/xlink" x="0px" y="0px" width="370px" height="290px"
	 viewBox="0 0 370 290" style="enable-background:new 0 0 370 290;" xml:space="preserve">
<metadata>
	<sfw  xmlns="&ns_sfw;">
		<slices></slices>
		<sliceSourceBounds  width="239" height="240" bottomLeftOrigin="true" y="-265" x="65"></sliceSourceBounds>
	</sfw>
</metadata>
<g>
	<path style="fill:#AE8554;" d="M115,66.138c0,5.447-4.415,9.862-9.862,9.862H74.862C69.415,76,65,71.585,65,66.138V35.862
		C65,30.415,69.415,26,74.862,26h30.276c5.447,0,9.862,4.415,9.862,9.862V66.138z"/>
	<path style="fill:#AE8554;" d="M179,66.138c0,5.447-4.415,9.862-9.862,9.862h-30.276c-5.447,0-9.862-4.415-9.862-9.862V35.862
		c0-5.447,4.415-9.862,9.862-9.862h30.276c5.447,0,9.862,4.415,9.862,9.862V66.138z"/>
	<path style="fill:#AE8554;" d="M115,129.138c0,5.447-4.415,9.862-9.862,9.862H74.862c-5.447,0-9.862-4.415-9.862-9.862V98.862
		C65,93.415,69.415,89,74.862,89h30.276c5.447,0,9.862,4.415,9.862,9.862V129.138z"/>
	<path style="fill:#AE8554;" d="M179,129.138c0,5.447-4.415,9.862-9.862,9.862h-30.276c-5.447,0-9.862-4.415-9.862-9.862V98.862
		c0-5.447,4.415-9.862,9.862-9.862h30.276c5.447,0,9.862,4.415,9.862,9.862V129.138z"/>
	<path style="fill:#AE8554;" d="M241,66.138c0,5.447-4.415,9.862-9.862,9.862h-30.276c-5.447,0-9.862-4.415-9.862-9.862V35.862
		c0-5.447,4.415-9.862,9.862-9.862h30.276c5.447,0,9.862,4.415,9.862,9.862V66.138z"/>
	<path style="fill:none;stroke:#AE8554;stroke-miterlimit:10;stroke-dasharray:1,3,1,3,1,3;" d="M303.5,65.638
		c0,5.447-4.415,9.862-9.862,9.862h-30.276c-5.447,0-9.862-4.415-9.862-9.862V35.362c0-5.447,4.415-9.862,9.862-9.862h30.276
		c5.447,0,9.862,4.415,9.862,9.862V65.638z"/>
	<path style="fill:none;stroke:#AE8554;stroke-miterlimit:10;stroke-dasharray:1,3,1,3,1,3;" d="M241.5,128.638
		c0,5.447-4.415,9.862-9.862,9.862h-30.276c-5.447,0-9.862-4.415-9.862-9.862V98.362c0-5.447,4.415-9.862,9.862-9.862h30.276
		c5.447,0,9.862,4.415,9.862,9.862V128.638z"/>
	<path style="fill:none;stroke:#AE8554;stroke-miterlimit:10;stroke-dasharray:1,3,1,3,1,3;" d="M303.5,128.638
		c0,5.447-4.415,9.862-9.862,9.862h-30.276c-5.447,0-9.862-4.415-9.862-9.862V98.362c0-5.447,4.415-9.862,9.862-9.862h30.276
		c5.447,0,9.862,4.415,9.862,9.862V128.638z"/>
	<path style="fill:#AE8554;" d="M241,192.138c0,5.447-4.415,9.862-9.862,9.862h-30.276c-5.447,0-9.862-4.415-9.862-9.862v-30.276
		c0-5.447,4.415-9.862,9.862-9.862h30.276c5.447,0,9.862,4.415,9.862,9.862V192.138z"/>
	<path style="fill:none;stroke:#AE8554;stroke-miterlimit:10;stroke-dasharray:1,3,1,3,1,3;" d="M303.5,191.638
		c0,5.447-4.415,9.862-9.862,9.862h-30.276c-5.447,0-9.862-4.415-9.862-9.862v-30.276c0-5.447,4.415-9.862,9.862-9.862h30.276
		c5.447,0,9.862,4.415,9.862,9.862V191.638z"/>
	<path style="fill:none;stroke:#AE8554;stroke-miterlimit:10;stroke-dasharray:1,3,1,3,1,3;" d="M241.5,254.638
		c0,5.447-4.415,9.862-9.862,9.862h-30.276c-5.447,0-9.862-4.415-9.862-9.862v-30.276c0-5.447,4.415-9.862,9.862-9.862h30.276
		c5.447,0,9.862,4.415,9.862,9.862V254.638z"/>
	<path style="fill:#AE8554;" d="M303,255.138c0,5.447-4.415,9.862-9.862,9.862h-30.276c-5.447,0-9.862-4.415-9.862-9.862v-30.276
		c0-5.447,4.415-9.862,9.862-9.862h30.276c5.447,0,9.862,4.415,9.862,9.862V255.138z"/>
	<path style="fill:#AE8554;" d="M115,192.138c0,5.447-4.415,9.862-9.862,9.862H74.862c-5.447,0-9.862-4.415-9.862-9.862v-30.276
		c0-5.447,4.415-9.862,9.862-9.862h30.276c5.447,0,9.862,4.415,9.862,9.862V192.138z"/>
	<path style="fill:none;stroke:#AE8554;stroke-miterlimit:10;stroke-dasharray:1,3,1,3,1,3;" d="M179.5,191.638
		c0,5.447-4.415,9.862-9.862,9.862h-30.276c-5.447,0-9.862-4.415-9.862-9.862v-30.276c0-5.447,4.415-9.862,9.862-9.862h30.276
		c5.447,0,9.862,4.415,9.862,9.862V191.638z"/>
	<path style="fill:none;stroke:#AE8554;stroke-miterlimit:10;stroke-dasharray:1,3,1,3,1,3;" d="M115.5,254.638
		c0,5.447-4.415,9.862-9.862,9.862H75.362c-5.447,0-9.862-4.415-9.862-9.862v-30.276c0-5.447,4.415-9.862,9.862-9.862h30.276
		c5.447,0,9.862,4.415,9.862,9.862V254.638z"/>
	<path style="fill:none;stroke:#AE8554;stroke-miterlimit:10;stroke-dasharray:1,3,1,3,1,3;" d="M179.5,254.638
		c0,5.447-4.415,9.862-9.862,9.862h-30.276c-5.447,0-9.862-4.415-9.862-9.862v-30.276c0-5.447,4.415-9.862,9.862-9.862h30.276
		c5.447,0,9.862,4.415,9.862,9.862V254.638z"/>
</g>
</svg>
