<svg xmlns="http://www.w3.org/2000/svg" xmlns:xlink="http://www.w3.org/1999/xlink" version="1.1" x="0px" y="0px" viewBox="0 0 100 100" enable-background="new 0 0 100 100" xml:space="preserve"><g><path d="M60.5,13.7c6.7,5.1,13.4,10.4,20,15.6c1.9,1.5,2.1,3,0.6,4.9c-1,1.4-2.1,2.6-3.3,3.9c-2,2.2-4,2.6-6.7,1.2   c-1-0.5-2-1.1-2.9-1.6c-1.6-1-3.4-1.2-5.2-0.8c-3.1,0.7-5.8,0-8.3-1.9c-0.5-0.4-1-0.8-1.5-1.2c3.5,9.1,16.1,17.1,16.6,17.4l0,0   c1.9,1.2,3,3.2,3,5.4l0,4.4c0,1.5-1.2,2.6-2.7,2.6l-12.4-0.2l0,0c-5.6,0-11.2,0-16.8,0c-0.1,0-0.2,0-0.2,0H29.8c-1.7,0-3-1.3-3-3   l0-6.1c0-0.1,0-0.3,0-0.4c0-3.5-0.1-6.9,0.2-10.4c0.3-4.6,0.8-9.1,1.8-13.6c1-4.3,2.4-8.4,4.9-12c2.4-3.3,5.2-5.8,9.7-5.6   c3,0.1,5.4-1,6.9-4c1-2.1,3-3.4,5.3-4.1c1-0.3,1.5,0.1,1.3,1C56.3,8.7,57.6,11.5,60.5,13.7z M17.9,93.4c0.1-1.3,0.4-2.7,0.5-4   c0.1-1.5,0.8-2.3,2.2-2.9c3.8-1.5,4.9-6.5,1.8-9.2c-1.7-1.5-2.1-3-1.5-5c0.1-0.3,0.1-0.7,0.1-1c0.4-2.7,0.8-3,3.5-3   c15.3,0,30.6,0,45.9,0c1.6,0,3.3,0,4.9,0c1.4,0,2.1,0.6,2.3,2c0.2,1.3,0.4,2.6,0.5,3.9c0.1,1-0.2,1.8-1.1,2.4   c-4.1,3.1-2.7,9,1.5,10.2c1,0.3,1.5,1,1.7,2c0.2,1.6,0.5,3.2,0.7,4.8c0.1,0.8-0.1,1.6-0.8,2.1c-0.6,0.5-1.3,0.4-2,0.4   c-9.6,0-19.2,0-28.7,0c0,0,0,0,0,0c-4.9,0-9.9,0-14.8,0c-4.8,0-9.6,0-14.4,0C18.5,96,17.7,95.2,17.9,93.4z M34.7,85.4h29.6v-6.6   H34.7V85.4z"></path></g></svg>