<svg xmlns="http://www.w3.org/2000/svg" xmlns:xlink="http://www.w3.org/1999/xlink" version="1.1" x="0px" y="0px" viewBox="0 0 100 100" enable-background="new 0 0 100 100" xml:space="preserve"><path stroke="#000000" stroke-width="2" stroke-miterlimit="10" d="M79.627,19H55.343c-1.101,0-2.637,0.615-3.414,1.393  L19.402,52.898c-0.778,0.778-0.778,2.051,0,2.828l25.502,25.456c0.777,0.777,2.097,0.778,2.875,0l32.62-32.526  C81.177,47.878,82,46.341,82,45.242V20.957C82,19.857,80.727,19,79.627,19z M77.385,28.857c-1.562,1.562-4.095,1.562-5.657,0  c-1.562-1.562-1.562-4.094,0-5.657c1.562-1.562,4.095-1.562,5.657,0C78.946,24.763,78.946,27.294,77.385,28.857z"></path></svg>