<svg xmlns="http://www.w3.org/2000/svg" xmlns:xlink="http://www.w3.org/1999/xlink" xmlns:sketch="http://www.bohemiancoding.com/sketch/ns" viewBox="0 0 95 62" version="1.1" x="0px" y="0px"><title>Eye</title><desc>Created with Sketch.</desc><g stroke="none" stroke-width="1" fill="none" fill-rule="evenodd" sketch:type="MSPage"><g sketch:type="MSArtboardGroup" fill="#000000"><path d="M64.7936089,16.8254074 C74.7563223,22.5008298 81.1714976,31 81.1714976,31 C81.1714976,31 66.71361,50.1545894 47.5,50.1545894 C28.28639,50.1545894 13.8285024,31 13.8285024,31 C13.8285024,31 21.0265146,21.4636852 32.0142982,15.8485572 C29.8673117,18.9826667 28.6111111,22.776294 28.6111111,26.8636364 C28.6111111,37.633189 37.3322311,46.3636364 48.0902778,46.3636364 C58.8483245,46.3636364 67.5694444,37.633189 67.5694444,26.8636364 C67.5694444,23.1922088 66.5558905,19.7577627 64.7936089,16.8254074 Z M47.5,57 C73.5801132,57 90,31 90,31 C90,31 73.5801132,5 47.5,5 C21.4198868,5 5,31 5,31 C5,31 21.4198868,57 47.5,57 Z M44.6175177,14.2039578 C39.5499727,14.1142937 34.6332809,17.9564998 34.3478175,23.6209559 C34.2822769,24.9214774 35.2834268,26.0288895 36.5839483,26.09443 C37.8844698,26.1599705 38.9918819,25.1588206 39.0574224,23.8582991 C39.2047048,20.9357724 41.8465789,18.8712491 44.5340942,18.9188015 C45.8360624,18.9418383 46.910191,17.9050595 46.9332278,16.6030914 C46.9562646,15.3011233 45.9194858,14.2269946 44.6175177,14.2039578 Z" sketch:type="MSShapeGroup"></path></g></g></svg>