<?xml version="1.0" encoding="iso-8859-1"?>
<!-- Generator: Adobe Illustrator 17.0.0, SVG Export Plug-In . SVG Version: 6.00 Build 0)  -->
<!DOCTYPE svg PUBLIC "-//W3C//DTD SVG 1.1//EN" "http://www.w3.org/Graphics/SVG/1.1/DTD/svg11.dtd" [
	<!ENTITY ns_extend "http://ns.adobe.com/Extensibility/1.0/">
	<!ENTITY ns_ai "http://ns.adobe.com/AdobeIllustrator/10.0/">
	<!ENTITY ns_graphs "http://ns.adobe.com/Graphs/1.0/">
	<!ENTITY ns_vars "http://ns.adobe.com/Variables/1.0/">
	<!ENTITY ns_imrep "http://ns.adobe.com/ImageReplacement/1.0/">
	<!ENTITY ns_sfw "http://ns.adobe.com/SaveForWeb/1.0/">
	<!ENTITY ns_custom "http://ns.adobe.com/GenericCustomNamespace/1.0/">
	<!ENTITY ns_adobe_xpath "http://ns.adobe.com/XPath/1.0/">
]>
<svg version="1.1" id="Ebene_1" xmlns:x="&ns_extend;" xmlns:i="&ns_ai;" xmlns:graph="&ns_graphs;"
	 xmlns="http://www.w3.org/2000/svg" xmlns:xlink="http://www.w3.org/1999/xlink" x="0px" y="0px" width="280px" height="280px"
	 viewBox="0 0 280 280" style="enable-background:new 0 0 280 280;" xml:space="preserve">
<metadata>
	<sfw  xmlns="&ns_sfw;">
		<slices></slices>
		<sliceSourceBounds  width="276.16" height="276.16" bottomLeftOrigin="true" y="-277.971" x="1.549"></sliceSourceBounds>
	</sfw>
</metadata>
<g>
	<path style="fill:#AF8654;" d="M139.66,249.255c-60.303,0-109.364-49.061-109.364-109.364S79.356,30.527,139.66,30.527
		s109.364,49.061,109.364,109.364S199.963,249.255,139.66,249.255z M139.66,31.527c-59.752,0-108.364,48.612-108.364,108.364
		c0,59.752,48.612,108.364,108.364,108.364c59.752,0,108.364-48.611,108.364-108.364C248.023,80.139,199.412,31.527,139.66,31.527z"
		/>
</g>
<g>
	<path style="fill:#AF8654;" d="M140.407,234.635l-0.105-18c0.29-0.002,0.579-0.006,0.866-0.012l0.371,17.996
		C141.163,234.627,140.786,234.633,140.407,234.635z M137.67,234.618c-0.369-0.008-0.737-0.018-1.105-0.029l0.58-17.99
		c0.298,0.01,0.596,0.018,0.894,0.023L137.67,234.618z M144.299,234.524l-0.895-17.979l0.918-0.049l1.057,17.969L144.299,234.524z
		 M133.806,234.462l-1.078-0.072l1.268-17.955l0.917,0.061L133.806,234.462z M148.156,234.258l-1.629-17.926l0.912-0.087
		l1.797,17.91C148.877,234.191,148.518,234.226,148.156,234.258z M129.976,234.15c-0.376-0.037-0.752-0.077-1.128-0.12l2.058-17.883
		c0.287,0.033,0.574,0.063,0.861,0.093L129.976,234.15z M151.979,233.839l-2.316-17.85c0.295-0.039,0.59-0.079,0.884-0.12
		l2.531,17.82C152.711,233.742,152.346,233.792,151.979,233.839z M126.133,233.682c-0.374-0.053-0.748-0.108-1.122-0.167
		l2.797-17.781c0.285,0.045,0.57,0.087,0.856,0.128L126.133,233.682z M155.781,233.265l-3.002-17.748
		c0.283-0.048,0.565-0.099,0.848-0.15l3.275,17.699C156.53,233.135,156.156,233.201,155.781,233.265z M122.312,233.058
		c-0.364-0.067-0.728-0.137-1.091-0.208l3.484-17.66c0.291,0.058,0.581,0.113,0.873,0.167L122.312,233.058z M159.587,232.53
		l-3.742-17.607c0.29-0.062,0.58-0.126,0.87-0.191l3.955,17.561C160.31,232.373,159.949,232.453,159.587,232.53z M118.516,232.274
		c-0.354-0.081-0.706-0.163-1.058-0.247l4.173-17.51l0.89,0.208L118.516,232.274z M163.359,231.638l-4.477-17.434
		c0.285-0.074,0.57-0.149,0.854-0.226l4.701,17.375C164.08,231.451,163.721,231.546,163.359,231.638z M114.776,231.342
		c-0.366-0.099-0.732-0.2-1.096-0.305l4.959-17.303c0.276,0.079,0.553,0.155,0.831,0.23L114.776,231.342z M167.075,230.6
		l-5.168-17.242c0.274-0.082,0.548-0.167,0.82-0.253l5.438,17.158C167.803,230.378,167.439,230.49,167.075,230.6z M111.062,230.252
		c-0.363-0.114-0.725-0.23-1.086-0.351l5.669-17.084c0.274,0.091,0.549,0.18,0.825,0.267L111.062,230.252z M170.799,229.39
		l-5.961-16.984l0.864-0.307l6.117,16.928C171.479,229.149,171.14,229.271,170.799,229.39z M107.37,229.001l-1.005-0.369
		l6.266-16.875l0.878,0.324L107.37,229.001z M174.423,228.043l-6.648-16.727l0.851-0.342l6.803,16.664
		C175.094,227.775,174.758,227.91,174.423,228.043z M103.75,227.605l-0.989-0.411l6.957-16.602l0.862,0.358L103.75,227.605z
		 M177.992,226.548l-7.346-16.434l0.845-0.38l7.473,16.375L177.992,226.548z M100.19,226.062c-0.334-0.154-0.667-0.309-0.999-0.465
		l7.689-16.275l0.819,0.381L100.19,226.062z M181.44,224.935l-7.924-16.162c0.261-0.128,0.519-0.257,0.775-0.388l8.156,16.047
		C182.113,224.602,181.777,224.77,181.44,224.935z M96.71,224.38c-0.333-0.169-0.665-0.341-0.995-0.514l8.364-15.939
		c0.261,0.138,0.523,0.272,0.786,0.406L96.71,224.38z M184.885,223.149l-8.615-15.805l0.79-0.436l8.781,15.713
		C185.523,222.8,185.205,222.975,184.885,223.149z M93.276,222.542c-0.316-0.179-0.632-0.358-0.947-0.54l8.993-15.592l0.794,0.452
		L93.276,222.542z M188.236,221.236l-9.254-15.439l0.771-0.468l9.416,15.34C188.859,220.859,188.549,221.049,188.236,221.236z
		 M89.942,220.578c-0.313-0.194-0.625-0.389-0.936-0.586l9.642-15.199c0.253,0.16,0.507,0.319,0.763,0.477L89.942,220.578z
		 M191.518,219.178l-9.898-15.033l0.764-0.508l10.033,14.944L191.518,219.178z M86.704,218.488
		c-0.305-0.205-0.609-0.413-0.911-0.622l10.227-14.812c0.247,0.17,0.494,0.339,0.742,0.507L86.704,218.488z M194.684,217.009
		l-10.467-14.645l0.731-0.528l10.621,14.531C195.275,216.583,194.98,216.797,194.684,217.009z M83.542,216.26
		c-0.299-0.221-0.598-0.443-0.896-0.667l10.842-14.369c0.236,0.179,0.472,0.354,0.71,0.528L83.542,216.26z M197.772,214.703
		l-11.043-14.215l0.71-0.559l11.193,14.098C198.347,214.254,198.061,214.479,197.772,214.703z M80.472,213.905
		c-0.292-0.233-0.583-0.47-0.873-0.707l11.43-13.906c0.226,0.187,0.454,0.37,0.682,0.553L80.472,213.905z M200.796,212.253
		l-11.658-13.715l0.702-0.602l11.771,13.617L200.796,212.253z M77.497,211.422c-0.277-0.241-0.554-0.483-0.829-0.728l11.969-13.445
		c0.223,0.199,0.448,0.396,0.673,0.593L77.497,211.422z M203.686,209.705l-12.189-13.244l0.664-0.617l12.326,13.117
		C204.221,209.211,203.953,209.459,203.686,209.705z M74.639,208.836c-0.265-0.25-0.529-0.502-0.791-0.754l12.475-12.977
		l0.656,0.625L74.639,208.836z M206.471,207.041l-12.701-12.754l0.638-0.643l12.834,12.621
		C206.985,206.525,206.729,206.784,206.471,207.041z M71.876,206.123c-0.257-0.263-0.512-0.526-0.766-0.792l13.015-12.436
		c0.207,0.217,0.415,0.432,0.624,0.646L71.876,206.123z M209.146,204.269l-13.193-12.244c0.201-0.217,0.4-0.436,0.599-0.655
		l13.346,12.08C209.648,203.724,209.398,203.997,209.146,204.269z M69.239,203.313c-0.25-0.277-0.499-0.557-0.746-0.837
		l13.521-11.883c0.193,0.22,0.388,0.438,0.583,0.655L69.239,203.313z M211.719,201.376l-13.689-11.688l0.585-0.693l13.811,11.545
		C212.19,200.819,211.956,201.099,211.719,201.376z M66.712,200.394c-0.239-0.287-0.476-0.576-0.711-0.867l13.991-11.324
		c0.184,0.227,0.37,0.453,0.557,0.678L66.712,200.394z M214.15,198.407l-14.117-11.168c0.18-0.227,0.357-0.456,0.533-0.686
		l14.279,10.959C214.615,197.812,214.385,198.11,214.15,198.407z M64.3,197.366c-0.223-0.292-0.445-0.586-0.665-0.881l14.432-10.758
		c0.178,0.238,0.357,0.476,0.538,0.713L64.3,197.366z M216.496,195.295l-14.594-10.537l0.526-0.737l14.703,10.383
		C216.922,194.701,216.71,194.999,216.496,195.295z M62.016,194.248c-0.207-0.296-0.413-0.593-0.617-0.89l14.837-10.191l0.521,0.751
		L62.016,194.248z M218.7,192.108l-15.018-9.924c0.166-0.251,0.33-0.502,0.492-0.753l15.129,9.752
		C219.104,191.493,218.903,191.801,218.7,192.108z M59.87,191.052c-0.199-0.309-0.396-0.62-0.591-0.932l15.252-9.559
		c0.157,0.251,0.316,0.502,0.477,0.752L59.87,191.052z M220.763,188.849l-15.393-9.33c0.15-0.248,0.299-0.498,0.445-0.748
		l15.527,9.105C221.151,188.202,220.958,188.526,220.763,188.849z M57.843,187.752l-0.541-0.935l15.618-8.947l0.458,0.792
		L57.843,187.752z M222.696,185.497l-15.76-8.697c0.141-0.254,0.278-0.51,0.415-0.767l15.885,8.469
		C223.059,184.835,222.878,185.167,222.696,185.497z M55.966,184.396c-0.173-0.324-0.344-0.649-0.513-0.977l15.981-8.281
		c0.137,0.263,0.275,0.525,0.415,0.787L55.966,184.396z M224.508,182.035l-16.131-7.986l0.405-0.826l16.203,7.838L224.508,182.035z
		 M54.222,180.956c-0.161-0.334-0.32-0.67-0.478-1.007l16.315-7.604c0.124,0.267,0.25,0.53,0.377,0.794L54.222,180.956z
		 M226.167,178.522l-16.451-7.305l0.37-0.843l16.518,7.154L226.167,178.522z M52.621,177.449c-0.147-0.341-0.293-0.683-0.436-1.026
		l16.612-6.93c0.113,0.27,0.227,0.539,0.343,0.808L52.621,177.449z M227.661,174.984l-16.709-6.693
		c0.108-0.271,0.215-0.543,0.32-0.816l16.801,6.459C227.938,174.285,227.801,174.636,227.661,174.984z M51.165,173.883
		c-0.135-0.35-0.267-0.701-0.397-1.054l16.886-6.234c0.101,0.274,0.204,0.546,0.309,0.817L51.165,173.883z M229.023,171.355
		l-16.969-6.008c0.098-0.275,0.193-0.552,0.287-0.83l17.051,5.771C229.271,170.646,229.148,171.002,229.023,171.355z
		 M49.848,170.233c-0.118-0.349-0.233-0.698-0.347-1.048l17.12-5.559c0.092,0.285,0.187,0.568,0.282,0.851L49.848,170.233z
		 M230.241,167.655l-17.209-5.279c0.087-0.281,0.171-0.563,0.254-0.847l17.275,5.057C230.457,166.943,230.35,167.3,230.241,167.655z
		 M48.688,166.554c-0.104-0.356-0.207-0.714-0.307-1.072l17.335-4.848c0.08,0.284,0.161,0.567,0.244,0.85L48.688,166.554z
		 M231.293,163.942l-17.405-4.588c0.076-0.288,0.149-0.576,0.222-0.864l17.459,4.379
		C231.479,163.228,231.388,163.586,231.293,163.942z M47.677,162.817c-0.089-0.358-0.176-0.718-0.261-1.077l17.517-4.143
		c0.068,0.289,0.139,0.578,0.21,0.866L47.677,162.817z M232.197,160.174l-17.582-3.854c0.062-0.288,0.124-0.577,0.184-0.867
		l17.631,3.631C232.354,159.448,232.277,159.812,232.197,160.174z M46.819,159.037l-0.212-1.062l17.665-3.453l0.18,0.898
		L46.819,159.037z M232.945,156.374l-17.727-3.123c0.051-0.29,0.101-0.582,0.147-0.873l17.766,2.898
		C233.071,155.644,233.01,156.01,232.945,156.374z M46.12,155.236c-0.06-0.364-0.117-0.729-0.172-1.095l17.799-2.686
		c0.044,0.294,0.09,0.588,0.138,0.882L46.12,155.236z M233.533,152.571l-17.834-2.434c0.038-0.284,0.074-0.569,0.109-0.855
		l17.869,2.162C233.633,151.82,233.585,152.197,233.533,152.571z M45.576,151.407c-0.044-0.367-0.087-0.734-0.127-1.104
		l17.895-1.947c0.032,0.295,0.066,0.59,0.102,0.883L45.576,151.407z M233.97,148.724l-17.92-1.691
		c0.026-0.286,0.051-0.573,0.074-0.86l17.943,1.42C234.038,147.971,234.006,148.348,233.97,148.724z M45.189,147.567
		c-0.03-0.372-0.058-0.744-0.083-1.117l17.959-1.211c0.02,0.293,0.042,0.585,0.065,0.877L45.189,147.567z M234.249,144.837
		l-17.978-0.898l0.042-0.918l17.984,0.738L234.249,144.837z M44.958,143.706c-0.015-0.367-0.027-0.735-0.038-1.103l17.993-0.502
		c0.008,0.297,0.018,0.593,0.03,0.89L44.958,143.706z M234.369,141.051l-17.998-0.185c0.003-0.297,0.005-0.866,0.005-0.866h18
		C234.376,140,234.374,140.683,234.369,141.051z M62.882,140h-18c0-1,0.002-0.82,0.007-1.192l17.998,0.275
		C62.884,139.376,62.882,140,62.882,140z M216.346,137.732l-0.03-0.916l17.986-0.688l0.036,1.076L216.346,137.732z M62.947,136.723
		l-17.985-0.737c0.015-0.365,0.032-0.729,0.051-1.092l17.977,0.924L62.947,136.723z M216.195,134.582
		c-0.021-0.297-0.042-0.594-0.065-0.891l17.943-1.425c0.029,0.367,0.057,0.735,0.081,1.103L216.195,134.582z M63.137,133.587
		l-17.941-1.449c0.03-0.373,0.062-0.745,0.097-1.116l17.921,1.689C63.186,133.002,63.161,133.294,63.137,133.587z M215.919,131.463
		c-0.032-0.296-0.066-0.591-0.102-0.885l17.869-2.164c0.045,0.367,0.087,0.734,0.127,1.102L215.919,131.463z M63.453,130.475
		l-17.866-2.188c0.045-0.367,0.092-0.733,0.141-1.099l17.839,2.401C63.527,129.884,63.489,130.179,63.453,130.475z M215.513,128.337
		c-0.042-0.285-0.087-0.569-0.133-0.853l17.764-2.903c0.062,0.374,0.12,0.748,0.176,1.123L215.513,128.337z M63.896,127.379
		l-17.761-2.925c0.06-0.365,0.122-0.729,0.186-1.093l17.725,3.139C63.994,126.793,63.944,127.086,63.896,127.379z M214.983,125.257
		c-0.056-0.292-0.113-0.582-0.173-0.872l17.639-3.591c0.073,0.362,0.146,0.726,0.216,1.089L214.983,125.257z M64.466,124.295
		l-17.629-3.637c0.074-0.359,0.15-0.717,0.228-1.074l17.588,3.829L64.466,124.295z M214.33,122.206
		c-0.068-0.289-0.138-0.576-0.209-0.863l17.473-4.328c0.089,0.359,0.176,0.719,0.26,1.08L214.33,122.206z M65.163,121.238
		l-17.467-4.347c0.089-0.36,0.181-0.719,0.275-1.078l17.412,4.564C65.308,120.664,65.234,120.951,65.163,121.238z M213.545,119.161
		c-0.076-0.277-0.155-0.553-0.236-0.829l17.273-5.063c0.106,0.364,0.211,0.729,0.312,1.094L213.545,119.161z M65.982,118.219
		l-17.273-5.063c0.104-0.355,0.211-0.711,0.319-1.065l17.209,5.278C66.15,117.652,66.065,117.935,65.982,118.219z M212.653,116.202
		l-0.285-0.862l17.055-5.756c0.116,0.345,0.23,0.69,0.344,1.037L212.653,116.202z M66.927,115.232l-17.047-5.778
		c0.119-0.353,0.241-0.704,0.365-1.055l16.974,5.991C67.12,114.67,67.022,114.951,66.927,115.232z M211.636,113.266l-0.331-0.876
		l16.809-6.438l0.376,0.995L211.636,113.266z M67.993,112.288l-16.789-6.49c0.132-0.343,0.267-0.686,0.403-1.027l16.716,6.676
		C68.212,111.726,68.102,112.006,67.993,112.288z M210.479,110.329c-0.114-0.271-0.229-0.542-0.346-0.812l16.52-7.148
		c0.146,0.339,0.292,0.68,0.434,1.021L210.479,110.329z M69.183,109.382l-16.508-7.176c0.146-0.337,0.295-0.673,0.445-1.009
		l16.427,7.359C69.424,108.831,69.303,109.106,69.183,109.382z M209.219,107.48l-0.389-0.82l16.23-7.784
		c0.156,0.326,0.312,0.653,0.465,0.981L209.219,107.48z M70.493,106.525L54.29,98.687c0.158-0.327,0.318-0.653,0.48-0.979
		l16.126,7.997L70.493,106.525z M207.837,104.667c-0.135-0.26-0.271-0.519-0.408-0.777l15.883-8.471
		c0.175,0.328,0.348,0.657,0.518,0.987L207.837,104.667z M71.916,103.73l-15.867-8.499c0.173-0.324,0.349-0.646,0.526-0.969
		l15.771,8.675L71.916,103.73z M206.346,101.928c-0.146-0.258-0.295-0.514-0.444-0.77l15.529-9.101
		c0.187,0.317,0.37,0.636,0.554,0.958L206.346,101.928z M73.454,100.994l-15.509-9.137c0.188-0.318,0.377-0.635,0.568-0.951
		l15.4,9.319C73.759,100.48,73.605,100.736,73.454,100.994z M204.745,99.251c-0.158-0.253-0.317-0.505-0.479-0.757l15.146-9.727
		c0.197,0.308,0.394,0.618,0.589,0.929L204.745,99.251z M75.098,98.329l-15.117-9.771c0.2-0.31,0.402-0.619,0.606-0.927
		l15.001,9.948C75.423,97.829,75.26,98.078,75.098,98.329z M203.031,96.628c-0.166-0.243-0.333-0.484-0.502-0.725l14.729-10.347
		c0.214,0.304,0.426,0.61,0.635,0.916L203.031,96.628z M76.856,95.725l-14.713-10.37c0.212-0.301,0.426-0.6,0.641-0.898
		l14.594,10.537C77.203,95.236,77.028,95.479,76.856,95.725z M201.208,94.077c-0.176-0.235-0.353-0.47-0.531-0.704l14.305-10.926
		c0.226,0.296,0.449,0.592,0.671,0.89L201.208,94.077z M78.715,93.199l-14.279-10.96c0.223-0.29,0.446-0.578,0.672-0.865
		l14.163,11.109L78.715,93.199z M199.297,91.617c-0.188-0.232-0.377-0.463-0.568-0.693l13.848-11.5
		c0.234,0.283,0.468,0.566,0.699,0.852L199.297,91.617z M80.669,90.758L66.858,79.214c0.234-0.28,0.469-0.558,0.706-0.835
		l13.69,11.686L80.669,90.758z M197.283,89.231l-0.609-0.684l13.383-12.037c0.241,0.268,0.481,0.538,0.721,0.808L197.283,89.231z
		 M82.732,88.384L69.388,76.305c0.249-0.275,0.499-0.548,0.751-0.82l13.193,12.245C83.131,87.947,82.931,88.165,82.732,88.384z
		 M195.165,86.921l-0.636-0.659l12.885-12.568c0.252,0.258,0.503,0.518,0.753,0.779L195.165,86.921z M84.885,86.103L72.039,73.495
		c0.259-0.265,0.521-0.527,0.783-0.789l12.688,12.768C85.301,85.682,85.092,85.892,84.885,86.103z M192.949,84.691l-0.656-0.626
		l12.367-13.079c0.265,0.25,0.528,0.502,0.791,0.756L192.949,84.691z M87.126,83.912L74.8,70.794
		c0.272-0.255,0.546-0.51,0.822-0.762L87.77,83.316C87.554,83.513,87.339,83.712,87.126,83.912z M190.65,82.558
		c-0.221-0.197-0.443-0.393-0.667-0.587l11.801-13.592c0.28,0.243,0.558,0.488,0.835,0.734L190.65,82.558z M89.447,81.822
		L77.676,68.204c0.278-0.24,0.557-0.479,0.837-0.716L90.128,81.24C89.899,81.433,89.673,81.626,89.447,81.822z M188.268,80.52
		c-0.229-0.188-0.459-0.375-0.691-0.56l11.242-14.059c0.289,0.232,0.577,0.465,0.863,0.7L188.268,80.52z M91.863,79.816
		L80.642,65.743c0.292-0.233,0.585-0.464,0.88-0.693l11.031,14.224C92.322,79.453,92.092,79.634,91.863,79.816z M185.795,78.577
		c-0.235-0.179-0.474-0.356-0.713-0.532l10.674-14.494c0.298,0.22,0.595,0.441,0.891,0.664L185.795,78.577z M94.341,77.924
		L83.719,63.392c0.292-0.213,0.584-0.424,0.877-0.634l10.484,14.631L94.341,77.924z M183.262,76.745l-0.748-0.512l10.088-14.907
		c0.303,0.205,0.604,0.411,0.904,0.619L183.262,76.745z M96.914,76.12L86.868,61.183c0.308-0.207,0.616-0.411,0.926-0.614
		l9.856,15.062C97.404,75.792,97.158,75.955,96.914,76.12z M180.649,75.013c-0.253-0.16-0.506-0.318-0.76-0.475l9.449-15.32
		c0.314,0.194,0.628,0.39,0.939,0.587L180.649,75.013z M99.538,74.435l-9.416-15.341c0.315-0.193,0.632-0.385,0.95-0.575
		l9.222,15.458C100.041,74.127,99.789,74.28,99.538,74.435z M177.963,73.387c-0.259-0.149-0.518-0.297-0.778-0.443l8.82-15.691
		c0.321,0.181,0.643,0.364,0.962,0.549L177.963,73.387z M102.233,72.854l-8.782-15.712c0.321-0.18,0.644-0.357,0.966-0.533
		l8.596,15.815C102.751,72.566,102.492,72.709,102.233,72.854z M175.223,71.877l-0.807-0.417l8.176-16.036
		c0.326,0.166,0.65,0.334,0.975,0.503L175.223,71.877z M104.984,71.388L96.86,55.326c0.323-0.163,0.646-0.325,0.971-0.485
		l7.965,16.142L104.984,71.388z M172.41,70.476l-0.823-0.384l7.52-16.354c0.332,0.153,0.664,0.308,0.995,0.464L172.41,70.476z
		 M107.802,70.032l-7.473-16.376c0.332-0.151,0.665-0.301,1-0.449l7.291,16.457L107.802,70.032z M169.531,69.185
		c-0.271-0.116-0.544-0.229-0.817-0.341l6.83-16.654c0.346,0.142,0.69,0.286,1.034,0.432L169.531,69.185z M110.668,68.794
		l-6.803-16.665c0.343-0.14,0.688-0.278,1.033-0.414l6.594,16.749C111.217,68.572,110.942,68.682,110.668,68.794z M166.633,68.027
		l-0.852-0.314l6.146-16.918c0.345,0.125,0.688,0.252,1.031,0.381L166.633,68.027z M113.581,67.675l-6.094-16.937
		c0.345-0.124,0.69-0.246,1.037-0.367l5.905,17.004C114.146,67.474,113.863,67.574,113.581,67.675z M163.679,66.985l-0.865-0.279
		l5.432-17.161c0.35,0.111,0.698,0.224,1.047,0.338L163.679,66.985z M116.553,66.672l-5.406-17.169c0.35-0.11,0.7-0.218,1.051-0.324
		l5.216,17.228L116.553,66.672z M160.681,66.064c-0.287-0.082-0.575-0.162-0.864-0.24l4.711-17.372
		c0.355,0.096,0.71,0.195,1.063,0.295L160.681,66.064z M119.558,65.793l-4.7-17.375c0.354-0.096,0.709-0.19,1.066-0.282
		l4.502,17.428C120.136,65.639,119.847,65.715,119.558,65.793z M157.655,65.271l-0.881-0.206l4.006-17.549
		c0.356,0.082,0.711,0.165,1.066,0.25L157.655,65.271z M122.596,65.039l-3.985-17.553c0.361-0.082,0.723-0.162,1.085-0.24
		l3.768,17.602C123.174,64.91,122.885,64.974,122.596,65.039z M154.595,64.6c-0.292-0.057-0.584-0.113-0.876-0.167l3.266-17.701
		c0.364,0.067,0.727,0.136,1.089,0.208L154.595,64.6z M125.654,64.412l-3.245-17.705l1.065-0.19l3.083,17.734L125.654,64.412z
		 M151.501,64.056c-0.293-0.045-0.588-0.089-0.882-0.132l2.557-17.817c0.366,0.052,0.731,0.107,1.097,0.164L151.501,64.056z
		 M128.752,63.908l-2.534-17.82c0.37-0.053,0.741-0.103,1.112-0.151l2.291,17.854C129.331,63.828,129.042,63.867,128.752,63.908z
		 M148.392,63.638c-0.291-0.033-0.582-0.064-0.874-0.094l1.816-17.908c0.372,0.038,0.743,0.078,1.114,0.121L148.392,63.638z
		 M131.856,63.532l-1.796-17.91c0.367-0.037,0.734-0.071,1.102-0.104l1.582,17.931C132.448,63.475,132.152,63.502,131.856,63.532z
		 M145.286,63.349l-0.901-0.061l1.106-17.966c0.364,0.022,0.729,0.047,1.092,0.073L145.286,63.349z M134.988,63.283l-1.082-17.968
		c0.373-0.022,0.745-0.042,1.118-0.06l0.844,17.98C135.574,63.249,135.281,63.265,134.988,63.283z M142.138,63.185
		c-0.293-0.01-0.586-0.018-0.881-0.024l0.369-17.996c0.373,0.008,0.746,0.018,1.119,0.03L142.138,63.185z M138.115,63.159
		l-0.344-17.997c0.368-0.007,0.736-0.012,1.105-0.015l0.132,18C138.71,63.149,138.413,63.153,138.115,63.159z"/>
</g>
<g>
	<path style="fill:#AF8654;" d="M139.729,277.971l-1.004-0.003l0.007-1l0.998,0.003V277.971z M142.739,277.936l-0.02-1l0.995-0.025
		l0.029,1L142.739,277.936z M135.715,277.916l-1.002-0.032l0.035-1l0.997,0.032L135.715,277.916z M146.752,277.788l-0.051-0.998
		l0.994-0.055l0.059,0.998L146.752,277.788z M131.706,277.744l-1.002-0.061l0.064-0.998l0.994,0.061L131.706,277.744z
		 M150.757,277.524l-0.076-0.998c0.33-0.024,0.66-0.053,0.99-0.082l0.088,0.996C151.425,277.47,151.091,277.498,150.757,277.524z
		 M127.703,277.458l-1-0.09l0.094-0.996l0.991,0.09L127.703,277.458z M154.756,277.146l-0.109-0.994l0.989-0.111l0.117,0.992
		L154.756,277.146z M123.71,277.056l-0.997-0.119l0.123-0.992l0.988,0.117L123.71,277.056z M158.74,276.649l-0.139-0.99l0.988-0.141
		l0.143,0.99L158.74,276.649z M119.731,276.538l-0.993-0.148l0.152-0.988l0.984,0.146L119.731,276.538z M162.708,276.039
		l-0.166-0.986l0.982-0.169l0.174,0.984L162.708,276.039z M115.768,275.905l-0.987-0.176l0.179-0.984l0.981,0.176L115.768,275.905z
		 M166.657,275.313l-0.193-0.98l0.978-0.197l0.201,0.979L166.657,275.313z M111.828,275.159l-0.982-0.205l0.208-0.979l0.974,0.203
		L111.828,275.159z M170.586,274.474l-0.223-0.975l0.97-0.226l0.232,0.973L170.586,274.474z M107.909,274.297l-0.976-0.233
		l0.237-0.971l0.967,0.231L107.909,274.297z M174.489,273.521l-0.252-0.969l0.965-0.254l0.258,0.967L174.489,273.521z
		 M104.018,273.323l-0.967-0.262l0.265-0.965l0.96,0.26L104.018,273.323z M178.36,272.454l-0.277-0.961l0.955-0.281l0.287,0.957
		L178.36,272.454z M100.158,272.236l-0.96-0.29l0.293-0.955l0.952,0.286L100.158,272.236z M182.203,271.273l-0.307-0.951l0.947-0.31
		l0.314,0.949L182.203,271.273z M96.33,271.038l-0.95-0.317l0.319-0.947l0.945,0.315L96.33,271.038z M186.007,269.983l-0.334-0.943
		l0.938-0.337l0.342,0.939L186.007,269.983z M92.541,269.729l-0.942-0.345l0.349-0.938l0.934,0.343L92.541,269.729z M189.775,268.58
		l-0.363-0.932l0.929-0.365l0.369,0.93L189.775,268.58z M88.792,268.31c-0.311-0.122-0.622-0.246-0.932-0.373l0.378-0.926
		c0.307,0.125,0.614,0.248,0.921,0.369L88.792,268.31z M193.498,267.069l-0.389-0.922l0.916-0.392l0.397,0.918L193.498,267.069z
		 M85.085,266.782l-0.92-0.399l0.402-0.916l0.911,0.396L85.085,266.782z M197.174,265.448l-0.412-0.91
		c0.302-0.137,0.603-0.277,0.903-0.418l0.424,0.906C197.784,265.169,197.479,265.31,197.174,265.448z M81.426,265.146l-0.907-0.426
		l0.429-0.904l0.899,0.422L81.426,265.146z M200.807,263.721l-0.443-0.896l0.894-0.445l0.449,0.893L200.807,263.721z
		 M77.817,263.405l-0.895-0.452l0.455-0.891l0.886,0.448L77.817,263.405z M204.384,261.887l-0.467-0.885
		c0.292-0.154,0.586-0.312,0.878-0.47l0.477,0.879C204.976,261.571,204.68,261.73,204.384,261.887z M74.26,261.559l-0.879-0.476
		l0.479-0.879l0.874,0.474L74.26,261.559z M207.908,259.948l-0.494-0.869l0.865-0.497l0.502,0.865L207.908,259.948z M70.76,259.61
		l-0.865-0.502l0.504-0.863l0.86,0.498L70.76,259.61z M211.375,257.906l-0.523-0.853l0.854-0.523l0.525,0.85L211.375,257.906z
		 M67.319,257.561l-0.851-0.527l0.531-0.848l0.843,0.523L67.319,257.561z M214.777,255.765l-0.543-0.84l0.835-0.547l0.551,0.834
		L214.777,255.765z M63.939,255.411l-0.833-0.551l0.553-0.834l0.83,0.549L63.939,255.411z M218.118,253.522l-0.568-0.822
		l0.819-0.572l0.576,0.818L218.118,253.522z M60.625,253.164l-0.816-0.574l0.577-0.816l0.812,0.572L60.625,253.164z
		 M221.394,251.184l-0.594-0.805l0.803-0.597l0.6,0.801L221.394,251.184z M57.377,250.822l-0.798-0.598l0.6-0.801l0.796,0.596
		L57.377,250.822z M224.601,248.749l-0.617-0.787l0.785-0.62l0.623,0.783L224.601,248.749z M54.201,248.389l-0.782-0.621
		l0.624-0.781l0.777,0.617L54.201,248.389z M227.732,246.223l-0.639-0.77l0.768-0.642l0.645,0.764L227.732,246.223z M51.096,245.865
		l-0.767-0.647l0.647-0.762l0.761,0.642L51.096,245.865z M230.794,243.605l-0.662-0.75l0.749-0.665l0.666,0.746L230.794,243.605z
		 M48.056,243.243l-0.749-0.669l0.67-0.742l0.742,0.663L48.056,243.243z M233.77,240.907l-0.682-0.732l0.726-0.682l0.688,0.727
		L233.77,240.907z M45.093,240.536l-0.727-0.688l0.69-0.725l0.721,0.684L45.093,240.536z M236.667,238.125l-0.705-0.709l0.707-0.704
		l0.707,0.707L236.667,238.125z M42.21,237.747l-0.708-0.711l0.711-0.703l0.703,0.705L42.21,237.747z M239.479,235.266l-0.721-0.691
		c0.229-0.239,0.456-0.479,0.683-0.721l0.729,0.686C239.94,234.782,239.711,235.024,239.479,235.266z M39.407,234.874l-0.688-0.729
		l0.729-0.684l0.684,0.726L39.407,234.874z M242.21,232.325l-0.742-0.67l0.665-0.741l0.746,0.664L242.21,232.325z M36.687,231.924
		l-0.67-0.754l0.751-0.66l0.664,0.748L36.687,231.924z M244.855,229.308l-0.76-0.648l0.643-0.761l0.766,0.643L244.855,229.308z
		 M34.044,228.887l-0.647-0.772l0.769-0.641l0.643,0.767L34.044,228.887z M247.41,226.221l-0.781-0.625l0.619-0.776l0.783,0.621
		L247.41,226.221z M31.491,225.773l-0.625-0.792l0.788-0.615l0.619,0.784L31.491,225.773z M249.869,223.064l-0.797-0.604
		l0.596-0.793l0.801,0.598L249.869,223.064z M29.03,222.588l-0.602-0.81l0.806-0.592l0.596,0.802L29.03,222.588z M252.238,219.838
		l-0.814-0.58l0.572-0.811l0.818,0.574L252.238,219.838z M26.663,219.333l-0.577-0.825l0.821-0.57l0.573,0.819L26.663,219.333z
		 M254.513,216.541l-0.832-0.555l0.549-0.828l0.836,0.551L254.513,216.541z M24.393,216.011l-0.553-0.841l0.838-0.547l0.549,0.837
		L24.393,216.011z M256.689,213.181l-0.848-0.529l0.525-0.845l0.85,0.527L256.689,213.181z M22.222,212.624l-0.528-0.858l0.854-0.52
		l0.523,0.851L22.222,212.624z M258.769,209.759l-0.863-0.506l0.499-0.859l0.867,0.5L258.769,209.759z M20.151,209.176l-0.502-0.871
		l0.868-0.496l0.499,0.865L20.151,209.176z M260.748,206.273l-0.879-0.479l0.475-0.874l0.881,0.475L260.748,206.273z
		 M18.182,205.668l-0.477-0.886l0.883-0.471l0.473,0.88L18.182,205.668z M262.621,202.735l-0.891-0.455l0.45-0.888l0.893,0.449
		L262.621,202.735z M16.317,202.107l-0.45-0.898l0.896-0.445l0.447,0.893L16.317,202.107z M264.394,199.14l-0.904-0.428l0.424-0.9
		l0.906,0.422L264.394,199.14z M14.558,198.49l-0.423-0.911l0.908-0.418l0.421,0.905L14.558,198.49z M266.06,195.495l-0.916-0.402
		l0.397-0.912l0.918,0.396L266.06,195.495z M12.907,194.825l-0.396-0.924l0.921-0.391l0.394,0.918L12.907,194.825z M267.618,191.802
		l-0.928-0.375l0.371-0.924l0.93,0.369L267.618,191.802z M11.364,191.113l-0.369-0.934l0.932-0.365l0.367,0.93L11.364,191.113z
		 M269.067,188.066l-0.936-0.352c0.116-0.311,0.229-0.621,0.343-0.932l0.939,0.34C269.301,187.438,269.186,187.752,269.067,188.066z
		 M9.93,187.36l-0.341-0.945l0.941-0.336l0.339,0.938L9.93,187.36z M270.409,184.287l-0.947-0.322l0.316-0.943l0.949,0.314
		L270.409,184.287z M8.606,183.566l-0.314-0.955l0.951-0.309l0.311,0.947L8.606,183.566z M271.641,180.47l-0.955-0.293l0.287-0.952
		l0.959,0.285L271.641,180.47z M7.395,179.736l-0.286-0.964l0.96-0.281l0.283,0.956L7.395,179.736z M272.759,176.619l-0.963-0.267
		l0.26-0.959l0.967,0.258L272.759,176.619z M6.295,175.871l-0.257-0.972l0.968-0.252l0.255,0.964L6.295,175.871z M273.766,172.736
		l-0.971-0.238l0.232-0.966l0.973,0.229L273.766,172.736z M5.309,171.978l-0.229-0.979l0.975-0.225l0.227,0.971L5.309,171.978z
		 M274.66,168.825l-0.979-0.209l0.205-0.975l0.979,0.203L274.66,168.825z M4.436,168.057l-0.2-0.985l0.98-0.195l0.199,0.978
		L4.436,168.057z M275.439,164.891l-0.982-0.182l0.176-0.979l0.984,0.174L275.439,164.891z M3.678,164.112l-0.172-0.989l0.985-0.168
		l0.171,0.983L3.678,164.112z M276.104,160.936l-0.988-0.154c0.052-0.328,0.101-0.656,0.147-0.983l0.99,0.145
		C276.205,160.273,276.156,160.604,276.104,160.936z M3.034,160.148l-0.143-0.994l0.99-0.139l0.142,0.986L3.034,160.148z
		 M276.656,156.959l-0.992-0.123l0.118-0.988l0.994,0.115L276.656,156.959z M2.506,156.167l-0.114-0.997l0.994-0.109l0.113,0.989
		L2.506,156.167z M277.092,152.97l-0.996-0.094l0.091-0.993l0.996,0.088L277.092,152.97z M2.093,152.174l-0.085-0.999l0.997-0.082
		l0.084,0.993L2.093,152.174z M277.411,148.972l-0.998-0.068l0.062-0.993l0.998,0.059L277.411,148.972z M1.796,148.171l-0.057-1.002
		l0.999-0.053l0.056,0.994L1.796,148.171z M277.616,144.963l-1-0.039l0.033-0.994l1,0.029L277.616,144.963z M1.614,144.16
		l-0.027-1.004l1-0.023l0.027,0.996L1.614,144.16z M277.705,140.949l-1-0.009l0.004-0.996h1L277.705,140.949z M2.549,140.145h-1
		l0.002-1.003l1,0.006L2.549,140.145z M276.677,136.955l-0.024-0.995l1-0.029l0.024,1.004L276.677,136.955z M2.6,136.158l-1-0.026
		l0.031-1.003l0.999,0.033L2.6,136.158z M276.536,132.973l-0.054-0.994l0.998-0.059l0.054,1.003L276.536,132.973z M2.765,132.177
		l-0.998-0.056l0.059-1.001l0.998,0.062L2.765,132.177z M276.278,128.996l-0.082-0.994l0.996-0.085l0.082,1L276.278,128.996z
		 M3.045,128.203l-0.996-0.085l0.088-0.999l0.996,0.091L3.045,128.203z M275.906,125.026l-0.111-0.991l0.994-0.114l0.111,0.997
		L275.906,125.026z M3.44,124.238l-0.993-0.113l0.117-0.996l0.993,0.12L3.44,124.238z M275.419,121.069l-0.14-0.986l0.99-0.144
		l0.14,0.995L275.419,121.069z M3.95,120.288l-0.99-0.143l0.146-0.992l0.988,0.149L3.95,120.288z M274.817,117.128l-0.168-0.982
		l0.984-0.173l0.17,0.991L274.817,117.128z M4.573,116.354l-0.985-0.172l0.175-0.987l0.984,0.178L4.573,116.354z M274.102,113.207
		l-0.196-0.977l0.979-0.202l0.198,0.985L274.102,113.207z M5.31,112.439l-0.979-0.199l0.203-0.982l0.979,0.206L5.31,112.439z
		 M273.272,109.306l-0.225-0.972l0.973-0.229l0.227,0.978L273.272,109.306z M6.161,108.548l-0.974-0.228l0.231-0.976l0.973,0.234
		L6.161,108.548z M272.329,105.431l-0.253-0.964l0.967-0.258l0.255,0.973L272.329,105.431z M7.124,104.684l-0.967-0.255l0.26-0.968
		l0.965,0.263L7.124,104.684z M271.274,101.585l-0.28-0.956l0.957-0.287l0.284,0.965L271.274,101.585z M8.198,100.851l-0.959-0.283
		l0.288-0.96l0.957,0.291L8.198,100.851z M270.107,97.771l-0.308-0.948l0.949-0.313l0.312,0.957L270.107,97.771z M9.384,97.05
		l-0.95-0.311l0.315-0.952l0.948,0.318L9.384,97.05z M268.83,93.992l-0.336-0.938l0.939-0.342l0.34,0.946L268.83,93.992z
		 M10.68,93.287l-0.94-0.339l0.343-0.941l0.938,0.345L10.68,93.287z M267.442,90.251l-0.363-0.929l0.93-0.368l0.367,0.937
		L267.442,90.251z M12.084,89.563l-0.931-0.367l0.371-0.93l0.928,0.373L12.084,89.563z M265.946,86.553l-0.391-0.918l0.918-0.395
		l0.395,0.924L265.946,86.553z M13.597,85.882l-0.919-0.394l0.397-0.919l0.916,0.4L13.597,85.882z M264.341,82.9l-0.417-0.907
		l0.906-0.421l0.421,0.913L264.341,82.9z M15.216,82.248l-0.907-0.42l0.424-0.907l0.904,0.427L15.216,82.248z M262.63,79.295
		l-0.444-0.895l0.895-0.447l0.446,0.9L262.63,79.295z M16.941,78.662l-0.895-0.446l0.45-0.895l0.892,0.454L16.941,78.662z
		 M260.812,75.74l-0.47-0.881l0.881-0.474l0.474,0.887L260.812,75.74z M18.77,75.13l-0.881-0.473l0.476-0.88l0.878,0.479
		L18.77,75.13z M258.894,72.241l-0.497-0.867l0.867-0.5l0.499,0.873L258.894,72.241z M20.701,71.653l-0.867-0.498l0.502-0.866
		l0.863,0.505L20.701,71.653z M256.872,68.798l-0.523-0.853l0.852-0.525l0.525,0.857L256.872,68.798z M22.732,68.234l-0.853-0.523
		l0.527-0.851l0.848,0.53L22.732,68.234z M254.748,65.417l-0.548-0.838l0.836-0.549l0.55,0.841L254.748,65.417z M24.861,64.878
		l-0.836-0.548l0.551-0.835l0.832,0.555L24.861,64.878z M252.525,62.096l-0.57-0.819l0.818-0.575l0.576,0.827L252.525,62.096z
		 M27.088,61.584l-0.82-0.572l0.575-0.818l0.816,0.578L27.088,61.584z M250.209,58.843l-0.596-0.803l0.801-0.599l0.6,0.809
		L250.209,58.843z M29.408,58.359l-0.803-0.596l0.598-0.801l0.799,0.601L29.408,58.359z M247.796,55.659l-0.619-0.787l0.783-0.621
		l0.623,0.792L247.796,55.659z M31.821,55.202l-0.786-0.618l0.622-0.784l0.78,0.626L31.821,55.202z M245.289,52.543l-0.641-0.767
		l0.766-0.644l0.646,0.774L245.289,52.543z M34.324,52.117l-0.768-0.642l0.646-0.767l0.763,0.646L34.324,52.117z M242.695,49.504
		l-0.664-0.75l0.746-0.665l0.668,0.754L242.695,49.504z M36.923,49.095l-0.749-0.662l0.669-0.75l0.743,0.67L36.923,49.095z
		 M240.021,46.546l-0.683-0.727l0.727-0.688l0.687,0.732L240.021,46.546z M39.608,46.15l-0.729-0.684l0.687-0.728l0.725,0.689
		L39.608,46.15z M237.263,43.668l-1.139-1.141l0.705-0.709l1.145,1.147L237.263,43.668z M42.374,43.286l-0.71-0.704l0.71-0.709
		l0.704,0.71L42.374,43.286z M45.222,40.5l-0.689-0.725l0.73-0.689l0.684,0.73L45.222,40.5z M233.98,40.447l-0.723-0.682
		l0.684-0.729l0.729,0.686L233.98,40.447z M48.149,37.796l-0.667-0.745l0.752-0.67l0.663,0.749L48.149,37.796z M231.054,37.746
		l-0.744-0.662l0.662-0.75l0.75,0.668L231.054,37.746z M51.163,35.168l-0.646-0.763l0.771-0.648l0.641,0.768L51.163,35.168z
		 M228.05,35.129l-0.764-0.641l0.641-0.768l0.768,0.645L228.05,35.129z M54.25,32.63l-0.624-0.781l0.791-0.626l0.617,0.787
		L54.25,32.63z M224.975,32.604l-0.777-0.616l0.619-0.786l0.783,0.621L224.975,32.604z M57.409,30.183l-0.601-0.799l0.808-0.603
		l0.594,0.805L57.409,30.183z M221.832,30.172c-0.263-0.199-0.528-0.396-0.794-0.593l0.596-0.804
		c0.268,0.198,0.535,0.397,0.802,0.599L221.832,30.172z M218.621,27.832l-0.812-0.57l0.57-0.821l0.819,0.575L218.621,27.832z
		 M60.638,27.831l-0.576-0.817l0.824-0.577l0.572,0.82L60.638,27.831z M215.342,25.585l-0.828-0.545l0.547-0.838l0.836,0.551
		L215.342,25.585z M63.933,25.573L63.38,24.74l0.841-0.554l0.546,0.838L63.933,25.573z M211.999,23.435l-0.844-0.522l0.521-0.853
		l0.852,0.526L211.999,23.435z M67.293,23.414l-0.529-0.849l0.856-0.529l0.521,0.854L67.293,23.414z M208.594,21.383l-0.86-0.497
		l0.498-0.868l0.866,0.501L208.594,21.383z M70.715,21.354l-0.504-0.864l0.872-0.503l0.497,0.867L70.715,21.354z M205.13,19.431
		l-0.875-0.472l0.473-0.882l0.881,0.476L205.13,19.431z M74.193,19.396l-0.478-0.878l0.886-0.478l0.471,0.883L74.193,19.396z
		 M201.609,17.581l-0.889-0.446l0.445-0.896l0.895,0.45L201.609,17.581z M77.728,17.542l-0.451-0.893l0.899-0.451l0.445,0.896
		L77.728,17.542z M198.034,15.833l-0.9-0.419l0.418-0.908l0.908,0.423L198.034,15.833z M81.315,15.792l-0.426-0.905l0.913-0.424
		l0.418,0.908L81.315,15.792z M194.411,14.192l-0.914-0.394l0.393-0.92l0.92,0.396L194.411,14.192z M84.952,14.147l-0.399-0.917
		l0.924-0.397l0.392,0.92L84.952,14.147z M190.739,12.657l-0.924-0.367l0.365-0.931l0.932,0.37L190.739,12.657z M88.633,12.611
		l-0.371-0.929l0.935-0.37l0.364,0.932L88.633,12.611z M187.025,11.229l-0.936-0.339l0.338-0.941l0.941,0.342L187.025,11.229z
		 M92.359,11.184l-0.344-0.939l0.944-0.342l0.338,0.941L92.359,11.184z M183.27,9.91l-0.945-0.312l0.311-0.95l0.951,0.314
		L183.27,9.91z M96.124,9.866l-0.315-0.949l0.954-0.314l0.311,0.951L96.124,9.866z M179.476,8.701l-0.954-0.285l0.283-0.959
		l0.96,0.287L179.476,8.701z M99.926,8.658l-0.288-0.957l0.962-0.287l0.282,0.959L99.926,8.658z M175.649,7.603l-0.962-0.257
		l0.256-0.967l0.968,0.259L175.649,7.603z M103.761,7.562L103.5,6.597l0.97-0.258l0.255,0.967L103.761,7.562z M171.79,6.616
		l-0.968-0.229l0.227-0.974l0.976,0.23L171.79,6.616z M107.625,6.579l-0.232-0.973l0.977-0.23l0.227,0.974L107.625,6.579z
		 M167.905,5.742l-0.975-0.201l0.197-0.98l0.982,0.203L167.905,5.742z M111.517,5.708l-0.203-0.979l0.983-0.201l0.197,0.98
		L111.517,5.708z M163.996,4.981l-0.98-0.172l0.17-0.985l0.986,0.173L163.996,4.981z M115.432,4.951l-0.176-0.984l0.99-0.173
		l0.168,0.985L115.432,4.951z M160.066,4.333l-0.985-0.144l0.141-0.99l0.993,0.145L160.066,4.333z M119.367,4.307l-0.146-0.989
		l0.993-0.144l0.141,0.99L119.367,4.307z M156.119,3.8l-0.99-0.116l0.113-0.993l0.996,0.116L156.119,3.8z M123.318,3.779
		L123.2,2.786l0.997-0.115l0.111,0.994L123.318,3.779z M152.158,3.38l-0.993-0.087l0.084-0.996l0.999,0.087L152.158,3.38z
		 M127.283,3.364l-0.089-0.996l1-0.086l0.082,0.997L127.283,3.364z M148.185,3.076l-0.994-0.058l0.055-0.998l1.002,0.058
		L148.185,3.076z M131.257,3.064l-0.06-0.998l1.001-0.057l0.055,0.998L131.257,3.064z M144.204,2.886l-0.996-0.029l0.027-1
		l1.002,0.03L144.204,2.886z M135.239,2.88l-0.032-0.999l1.003-0.029l0.025,1L135.239,2.88z M140.22,2.812l-0.591-0.001l-0.405,0
		l-0.004-1l0.409,0l0.596,0.001L140.22,2.812z"/>
</g>
<g>
	<path style="fill:#AF8654;" d="M139.599,203.091c-16.881,0-32.752-6.574-44.689-18.511c-24.642-24.642-24.642-64.736,0-89.378
		c11.937-11.937,27.808-18.511,44.689-18.511s32.752,6.574,44.689,18.511c24.642,24.642,24.642,64.736,0,89.378
		C172.352,196.517,156.48,203.091,139.599,203.091z M139.599,77.691c-16.614,0-32.234,6.47-43.982,18.218
		c-24.251,24.252-24.251,63.712,0,87.964c11.748,11.748,27.368,18.218,43.982,18.218c16.615,0,32.234-6.47,43.982-18.218
		c24.251-24.252,24.251-63.712,0-87.964C171.833,84.161,156.214,77.691,139.599,77.691z"/>
</g>
</svg>
