<?xml version="1.0" encoding="utf-8"?>
<!-- Generator: Adobe Illustrator 17.0.0, SVG Export Plug-In . SVG Version: 6.00 Build 0)  -->
<!DOCTYPE svg PUBLIC "-//W3C//DTD SVG 1.0//EN" "http://www.w3.org/TR/2001/REC-SVG-20010904/DTD/svg10.dtd" [
	<!ENTITY ns_extend "http://ns.adobe.com/Extensibility/1.0/">
	<!ENTITY ns_ai "http://ns.adobe.com/AdobeIllustrator/10.0/">
	<!ENTITY ns_graphs "http://ns.adobe.com/Graphs/1.0/">
	<!ENTITY ns_vars "http://ns.adobe.com/Variables/1.0/">
	<!ENTITY ns_imrep "http://ns.adobe.com/ImageReplacement/1.0/">
	<!ENTITY ns_sfw "http://ns.adobe.com/SaveForWeb/1.0/">
	<!ENTITY ns_custom "http://ns.adobe.com/GenericCustomNamespace/1.0/">
	<!ENTITY ns_adobe_xpath "http://ns.adobe.com/XPath/1.0/">
]>
<svg version="1.0" id="Ebene_1" xmlns:x="&ns_extend;" xmlns:i="&ns_ai;" xmlns:graph="&ns_graphs;"
	 xmlns="http://www.w3.org/2000/svg" xmlns:xlink="http://www.w3.org/1999/xlink" x="0px" y="0px" width="1000px" height="1000px"
	 viewBox="0 0 1000 1000" enable-background="new 0 0 1000 1000" xml:space="preserve">
<metadata>
	<sfw  xmlns="&ns_sfw;">
		<slices></slices>
		<sliceSourceBounds  width="853.972" height="832.561" bottomLeftOrigin="true" y="-917.091" x="72.35"></sliceSourceBounds>
	</sfw>
</metadata>
<g>
	<g>
		<polygon opacity="0.2" fill="#5C5C5C" points="499.336,917.091 156.92,752.192 72.35,381.668 		"/>
		<polygon opacity="0.2" fill="#5C5C5C" points="499.336,917.091 156.92,752.192 841.752,752.192 		"/>
		<polygon opacity="0.2" fill="#5C5C5C" points="309.309,84.53 499.336,917.091 156.92,752.192 		"/>
		<polygon opacity="0.2" fill="#5C5C5C" points="156.92,752.192 689.363,84.53 499.336,917.091 		"/>
		<polygon opacity="0.2" fill="#5C5C5C" points="156.92,752.192 926.322,381.668 499.336,917.091 		"/>
		<polygon opacity="0.2" fill="#5C5C5C" points="499.336,917.091 689.363,84.53 309.309,84.53 		"/>
		<polygon opacity="0.2" fill="#5C5C5C" points="499.336,917.091 926.322,381.668 689.363,84.53 		"/>
		<polygon opacity="0.2" fill="#5C5C5C" points="689.363,84.53 72.35,381.668 309.309,84.53 		"/>
		<polygon opacity="0.2" fill="#5C5C5C" points="841.752,752.192 72.35,381.668 926.322,381.668 		"/>
		<polygon opacity="0.2" fill="#5C5C5C" points="309.309,84.53 926.322,381.668 841.752,752.192 		"/>
		<polygon opacity="0.2" fill="#5C5C5C" points="309.309,84.53 689.363,84.53 926.322,381.668 		"/>
	</g>
	<g>
		<polygon fill="#B3845F" points="651.685,513.897 499.338,587.308 346.927,513.897 499.296,322.823 		"/>
		<polygon fill="#B3845F" points="499.338,587.308 431.525,619.993 567.039,619.88 		"/>
	</g>
</g>
</svg>
